<svg width="20" height="20" viewBox="0 0 20 20" fill="none" xmlns="http://www.w3.org/2000/svg">
<g clip-path="url(#clip0_521_1944)">
<path d="M12.5417 10.675L5.46666 3.59998C5.14166 3.27498 4.61666 3.27498 4.29166 3.59998L1.93333 5.95831C1.60833 6.28331 1.60833 6.80832 1.93333 7.13331L9.00833 14.2083C9.33333 14.5333 9.85833 14.5333 10.1833 14.2083L12.5417 11.85C12.8667 11.525 12.8667 11 12.5417 10.675Z" fill="#323232" fill-opacity="0.5"/>
<path d="M13.1296 13.6183L11.951 14.7968L15.4866 18.3323L16.6651 17.1538L13.1296 13.6183Z" fill="#323232" fill-opacity="0.5"/>
<path d="M15.4167 7.49999C17.0275 7.49999 18.3333 6.19415 18.3333 4.58332C18.3333 2.97249 17.0275 1.66666 15.4167 1.66666C13.8058 1.66666 12.5 2.97249 12.5 4.58332C12.5 6.19415 13.8058 7.49999 15.4167 7.49999Z" fill="#323232" fill-opacity="0.5"/>
</g>
<defs>
<clipPath id="clip0_521_1944">
<rect width="20" height="20" fill="white"/>
</clipPath>
</defs>
</svg>
