<svg width="60" height="68" viewBox="0 0 60 68" fill="none" xmlns="http://www.w3.org/2000/svg">
<path d="M36.4643 4.84444H21.8898C20.6929 4.84444 19.7228 3.88029 19.7228 2.6909V2.15354C19.7228 0.964155 20.6929 0 21.8898 0H36.4643C37.6611 0 38.6313 0.964155 38.6313 2.15354V2.6909C38.6313 3.88029 37.6611 4.84444 36.4643 4.84444Z" fill="#FCE575"/>
<path d="M27.1198 2.6909V2.15354C27.1198 0.964155 28.09 0 29.2868 0H21.8898C20.6929 0 19.7228 0.964155 19.7228 2.15354V2.6909C19.7228 3.88029 20.6929 4.84444 21.8898 4.84444H29.2868C28.09 4.84444 27.1198 3.88029 27.1198 2.6909Z" fill="#FFD551"/>
<path d="M32.7223 4.84445H25.6316V24.3694H32.7223V4.84445Z" fill="#FFC34C"/>
<path d="M48.0184 30.574L42.2578 23.498L52.963 14.8908C54.4399 13.7035 56.6056 13.9307 57.8005 15.3984L59.2343 17.1595C60.4291 18.6272 60.2005 20.7794 58.7237 21.9669L48.0184 30.574Z" fill="#FFC34C"/>
<path d="M53.2589 18.2723C54.7358 17.085 56.9016 17.3121 58.0964 18.7798L59.5302 20.5409C59.5838 20.6067 59.6311 20.6753 59.6789 20.7438C60.2108 19.5991 60.0862 18.206 59.2343 17.1595L57.8005 15.3984C56.6056 13.9307 54.4399 13.7035 52.963 14.8908L42.2578 23.498L44.0387 25.6855L53.2589 18.2723Z" fill="#FFA730"/>
<path d="M29.1821 4.84445H25.6316V24.3694H29.1821V4.84445Z" fill="#E58D23"/>
<path d="M29.213 67.9999C45.3469 67.9999 58.426 55.0022 58.426 38.9687C58.426 22.9352 45.3469 9.93743 29.213 9.93743C13.0791 9.93743 0 22.9352 0 38.9687C0 55.0022 13.0791 67.9999 29.213 67.9999Z" fill="#FF624B"/>
<path d="M29.2129 61.7191C41.8563 61.7191 52.1058 51.5334 52.1058 38.9687C52.1058 26.404 41.8563 16.2183 29.2129 16.2183C16.5695 16.2183 6.32006 26.404 6.32006 38.9687C6.32006 51.5334 16.5695 61.7191 29.2129 61.7191Z" fill="#FFDF74"/>
<path d="M10.3558 38.9687C10.3558 24.6911 20.7269 12.8211 34.3909 10.3922C32.7105 10.0934 30.98 9.93743 29.213 9.93743C13.0791 9.93743 0 22.9351 0 38.9687C0 55.0022 13.0791 67.9999 29.213 67.9999C30.98 67.9999 32.7105 67.8439 34.3909 67.5451C20.7269 65.1162 10.3558 53.246 10.3558 38.9687Z" fill="#FF4B34"/>
<path d="M36.126 66.204C37.3647 66.204 38.3688 65.2061 38.3688 63.9752C38.3688 62.7443 37.3647 61.7464 36.126 61.7464C34.8874 61.7464 33.8833 62.7443 33.8833 63.9752C33.8833 65.2061 34.8874 66.204 36.126 66.204Z" fill="#FF4B34"/>
<path d="M18.4816 59.0592C13.4488 53.8437 10.356 46.7653 10.356 38.9685C10.356 31.172 13.4488 24.0934 18.4816 18.8779C11.2526 22.7067 6.32031 30.2754 6.32031 38.9685C6.32031 47.6617 11.2526 55.2304 18.4816 59.0592Z" fill="#FFC34C"/>
<path d="M29.1772 22.7603C28.5644 22.7603 28.0676 22.2668 28.0676 21.6577V18.3611C28.0676 17.752 28.5644 17.2584 29.1772 17.2584C29.7899 17.2584 30.2867 17.752 30.2867 18.3611V21.6577C30.2867 22.2666 29.7899 22.7603 29.1772 22.7603ZM29.1772 60.4923C28.5644 60.4923 28.0676 59.9988 28.0676 59.3897V56.0932C28.0676 55.4841 28.5644 54.9905 29.1772 54.9905C29.7899 54.9905 30.2867 55.4841 30.2867 56.0932V59.3897C30.2867 59.9988 29.7899 60.4923 29.1772 60.4923ZM41.4282 27.8032C41.1443 27.8032 40.8603 27.6956 40.6437 27.4802C40.2104 27.0496 40.2104 26.3516 40.6437 25.9209L42.9893 23.5901C43.4226 23.1596 44.1252 23.1596 44.5584 23.5901C44.9917 24.0209 44.9917 24.7189 44.5584 25.1495L42.2128 27.4804C41.9962 27.6955 41.7121 27.8032 41.4282 27.8032ZM14.5805 54.4839C14.2966 54.4839 14.0126 54.3763 13.796 54.1611C13.3627 53.7303 13.3627 53.0322 13.796 52.6018L16.1416 50.2706C16.5749 49.8402 17.2775 49.8402 17.7106 50.2706C18.1439 50.7014 18.1439 51.3994 17.7106 51.8299L15.365 54.1611C15.1485 54.3763 14.8644 54.4839 14.5805 54.4839ZM49.82 39.9781H46.5027C45.89 39.9781 45.3932 39.4845 45.3932 38.8754C45.3932 38.2663 45.89 37.7728 46.5027 37.7728H49.8198C50.4326 37.7728 50.9294 38.2663 50.9294 38.8754C50.9294 39.4845 50.4328 39.9781 49.82 39.9781ZM11.8516 39.9781H8.53435C7.92158 39.9781 7.4248 39.4845 7.4248 38.8754C7.4248 38.2663 7.92158 37.7728 8.53435 37.7728H11.8516C12.4644 37.7728 12.9612 38.2663 12.9612 38.8754C12.9612 39.4845 12.4644 39.9781 11.8516 39.9781ZM43.7738 54.4839C43.4899 54.4839 43.2059 54.3763 42.9893 54.1611L40.6437 51.8299C40.2104 51.3993 40.2104 50.7013 40.6437 50.2706C41.077 49.8402 41.7796 49.8402 42.2128 50.2706L44.5584 52.6018C44.9917 53.0324 44.9917 53.7304 44.5584 54.1611C44.3418 54.3763 44.0577 54.4839 43.7738 54.4839ZM16.9261 27.8032C16.6422 27.8032 16.3582 27.6956 16.1416 27.4804L13.796 25.1494C13.3627 24.7186 13.3627 24.0206 13.796 23.59C14.2293 23.1595 14.9319 23.1595 15.365 23.59L17.7106 25.9208C18.1439 26.3516 18.1439 27.0496 17.7106 27.4801C17.494 27.6955 17.21 27.8032 16.9261 27.8032Z" fill="#FFA730"/>
<path d="M21.7869 22.6534C23.0256 22.6534 24.0297 21.6556 24.0297 20.4246C24.0297 19.1937 23.0256 18.1958 21.7869 18.1958C20.5483 18.1958 19.5442 19.1937 19.5442 20.4246C19.5442 21.6556 20.5483 22.6534 21.7869 22.6534Z" fill="#FFC34C"/>
<path d="M35.4976 14.5447C45.088 16.9831 52.5072 24.8664 54.2089 34.6707C54.2927 35.1529 54.7498 35.4786 55.2349 35.3951C55.7163 35.3121 56.0423 34.8574 55.9595 34.3789C54.141 23.8814 46.1974 15.4407 35.929 12.8334C35.4327 12.7074 34.9332 13.0304 34.841 13.5312L34.8409 13.5319C34.757 13.9889 35.0448 14.4296 35.4976 14.5447Z" fill="#FF9079"/>
<path d="M29.287 40.5701C28.5516 40.5701 27.9555 39.9777 27.9555 39.2469V25.8133C27.9555 25.0824 28.5516 24.4901 29.287 24.4901C30.0224 24.4901 30.6185 25.0824 30.6185 25.8133V39.2469C30.6185 39.9777 30.0223 40.5701 29.287 40.5701Z" fill="#FF4B34"/>
</svg>
