<svg width="16" height="16" viewBox="0 0 16 16" fill="none" xmlns="http://www.w3.org/2000/svg">
<path d="M1.33331 2.662C1.33453 2.48692 1.40458 2.31934 1.52832 2.19548C1.65206 2.07161 1.81957 2.0014 1.99465 2H14.0053C14.3706 2 14.6666 2.29667 14.6666 2.662V13.338C14.6654 13.5131 14.5954 13.6807 14.4716 13.8045C14.3479 13.9284 14.1804 13.9986 14.0053 14H1.99465C1.81919 13.9998 1.65098 13.93 1.52697 13.8059C1.40297 13.6817 1.33331 13.5135 1.33331 13.338V2.662ZM2.66665 3.33333V12.6667H13.3333V3.33333H2.66665ZM7.08131 5.61L10.334 7.778C10.3706 7.80234 10.4006 7.83535 10.4213 7.87408C10.442 7.91281 10.4529 7.95606 10.4529 8C10.4529 8.04394 10.442 8.08719 10.4213 8.12592C10.4006 8.16465 10.3706 8.19766 10.334 8.222L7.08065 10.39C7.04053 10.4166 6.99397 10.4318 6.94589 10.4341C6.89782 10.4364 6.85003 10.4256 6.80759 10.4029C6.76514 10.3802 6.72963 10.3465 6.70482 10.3052C6.68001 10.264 6.66682 10.2168 6.66665 10.1687V5.83133C6.66674 5.7831 6.6799 5.73579 6.70475 5.69445C6.7296 5.65311 6.76519 5.61929 6.80774 5.59657C6.85029 5.57386 6.89821 5.56312 6.94638 5.56548C6.99456 5.56784 7.04119 5.58323 7.08131 5.61Z" fill="#929393"/>
</svg>
