<svg width="20" height="20" viewBox="0 0 20 20" fill="none" xmlns="http://www.w3.org/2000/svg">
<g clip-path="url(#clip0_521_1964)">
<path d="M14.2416 9.16664H18.2916C18.1583 7.82497 17.7 6.57497 17.0083 5.49997C15.5666 6.19164 14.5166 7.54164 14.2416 9.16664Z" fill="#323232" fill-opacity="0.5"/>
<path d="M5.75831 9.16664C5.48331 7.54164 4.43331 6.19164 2.99165 5.49997C2.29998 6.57497 1.84165 7.82497 1.70831 9.16664H5.75831Z" fill="#323232" fill-opacity="0.5"/>
<path d="M12.5583 9.16665C12.825 7.00831 14.125 5.17498 15.9416 4.16665C14.6083 2.80831 12.825 1.90831 10.8333 1.70831V9.16665H12.5583Z" fill="#323232" fill-opacity="0.5"/>
<path d="M7.44162 9.16665H9.16662V1.70831C7.17496 1.90831 5.38329 2.80831 4.05829 4.16665C5.87496 5.17498 7.17496 7.00831 7.44162 9.16665Z" fill="#323232" fill-opacity="0.5"/>
<path d="M12.5583 10.8333H10.8333V18.2916C12.825 18.0916 14.6166 17.1916 15.9416 15.8333C14.125 14.825 12.825 12.9916 12.5583 10.8333Z" fill="#323232" fill-opacity="0.5"/>
<path d="M2.99165 14.5C4.42498 13.8083 5.48331 12.45 5.75831 10.8333H1.70831C1.84165 12.175 2.29998 13.425 2.99165 14.5Z" fill="#323232" fill-opacity="0.5"/>
<path d="M14.2416 10.8333C14.5166 12.4583 15.5666 13.8083 17.0083 14.5C17.7 13.425 18.1583 12.175 18.2916 10.8333H14.2416Z" fill="#323232" fill-opacity="0.5"/>
<path d="M7.44162 10.8333C7.17496 12.9916 5.87496 14.825 4.05829 15.8333C5.39162 17.1916 7.17496 18.0916 9.16662 18.2916V10.8333H7.44162Z" fill="#323232" fill-opacity="0.5"/>
</g>
<defs>
<clipPath id="clip0_521_1964">
<rect width="20" height="20" fill="white"/>
</clipPath>
</defs>
</svg>
