<svg width="24" height="24" viewBox="0 0 24 24" fill="none" xmlns="http://www.w3.org/2000/svg">
<g opacity="0.5" clip-path="url(#clip0_521_2417)">
<path d="M13.5 0.670013C13.5 0.670013 14.24 3.32001 14.24 5.47001C14.24 7.53001 12.89 9.20001 10.83 9.20001C8.76 9.20001 7.2 7.53001 7.2 5.47001L7.23 5.11001C5.21 7.51001 4 10.62 4 14C4 18.42 7.58 22 12 22C16.42 22 20 18.42 20 14C20 8.61001 17.41 3.80001 13.5 0.670013ZM11.71 19C9.93 19 8.49 17.6 8.49 15.86C8.49 14.24 9.54 13.1 11.3 12.74C13.07 12.38 14.9 11.53 15.92 10.16C16.31 11.45 16.51 12.81 16.51 14.2C16.51 16.85 14.36 19 11.71 19Z" fill="white"/>
</g>
<defs>
<clipPath id="clip0_521_2417">
<rect width="24" height="24" fill="white"/>
</clipPath>
</defs>
</svg>
