<svg width="20" height="20" viewBox="0 0 20 20" fill="none" xmlns="http://www.w3.org/2000/svg">
<g clip-path="url(#clip0_521_1955)">
<path d="M10 1.66669C5.40002 1.66669 1.66669 5.40002 1.66669 10C1.66669 14.6 5.40002 18.3334 10 18.3334C14.6 18.3334 18.3334 14.6 18.3334 10C18.3334 5.40002 14.6 1.66669 10 1.66669ZM10.8334 4.41669L11.9584 3.62502C13.475 4.09169 14.7667 5.09169 15.6084 6.40835L15.2834 7.52502L14.1584 7.90835L10.8334 5.58335V4.41669ZM8.04169 3.62502L9.16669 4.41669V5.58335L5.84169 7.90835L4.71669 7.52502L4.39169 6.40835C5.23335 5.10002 6.52502 4.10002 8.04169 3.62502ZM5.90002 14.2584L4.95002 14.3417C3.94169 13.175 3.33335 11.6584 3.33335 10C3.33335 9.90002 3.34169 9.80835 3.35002 9.70835L4.18335 9.10002L5.33335 9.50002L6.55002 13.1167L5.90002 14.2584ZM12.0834 16.325C11.425 16.5417 10.725 16.6667 10 16.6667C9.27502 16.6667 8.57502 16.5417 7.91669 16.325L7.34169 15.0834L7.87502 14.1667H12.1334L12.6667 15.0917L12.0834 16.325ZM11.8917 12.5H8.10835L6.98335 9.15002L10 7.03335L13.025 9.15002L11.8917 12.5ZM15.05 14.3417L14.1 14.2584L13.4417 13.1167L14.6584 9.50002L15.8167 9.10835L16.65 9.71669C16.6584 9.80835 16.6667 9.90002 16.6667 10C16.6667 11.6584 16.0584 13.175 15.05 14.3417Z" fill="white"/>
</g>
<defs>
<clipPath id="clip0_521_1955">
<rect width="20" height="20" fill="white"/>
</clipPath>
</defs>
</svg>
