<svg width="18" height="18" viewBox="0 0 18 18" fill="none" xmlns="http://www.w3.org/2000/svg">
<g clip-path="url(#clip0_521_2164)">
<path d="M18 8.99998C18 13.9709 13.9704 18 8.99998 18C4.02933 18 0 13.9709 0 8.99998C0 4.02955 4.02933 0 8.99998 0C13.9704 0 18 4.02955 18 8.99998Z" fill="#DBA111"/>
<path d="M17.6997 9.00001C17.6997 13.8049 13.8048 17.6998 8.99993 17.6998C4.19498 17.6998 0.300049 13.8049 0.300049 9.00001C0.300049 4.19506 4.19498 0.300119 8.99993 0.300119C13.8048 0.300119 17.6997 4.19506 17.6997 9.00001Z" fill="#034694"/>
<path d="M15.1997 8.99998C15.1997 12.424 12.424 15.1993 8.99996 15.1993C5.57575 15.1993 2.79993 12.424 2.79993 8.99998C2.79993 5.57561 5.57575 2.79994 8.99996 2.79994C12.4241 2.7999 15.1997 5.57561 15.1997 8.99998Z" fill="#DBA111"/>
<path d="M15.0122 9C15.0122 12.3205 12.32 15.0121 8.99997 15.0121C5.67951 15.0121 2.98779 12.3204 2.98779 9C2.98779 5.67957 5.67951 2.98778 8.99997 2.98778C12.3201 2.98778 15.0122 5.67954 15.0122 9Z" fill="white"/>
<path d="M3.84845 14.1868C3.91499 14.2503 4.07865 14.4062 4.07865 14.4062L4.23553 14.241L3.76757 13.7949L3.70736 13.858L3.07904 14.5167L3.3176 14.7438C3.3176 14.7438 3.51909 14.5325 3.59282 14.4555C3.65443 14.514 3.80226 14.6549 3.80226 14.6549L3.95925 14.4901C3.95925 14.4901 3.81165 14.3493 3.75012 14.2903C3.78915 14.2492 3.809 14.2284 3.84845 14.1868Z" fill="#DBA111"/>
<path d="M4.97697 14.939C4.95581 14.8127 4.88488 14.7011 4.77757 14.6249C4.67074 14.549 4.54253 14.519 4.4162 14.5397C4.28015 14.5629 4.15792 14.6422 4.07181 14.7627C3.986 14.8839 3.95135 15.0253 3.97445 15.1619C3.99569 15.2878 4.06613 15.3987 4.1731 15.475C4.28015 15.5511 4.40931 15.5815 4.53545 15.5603C4.67143 15.5374 4.79374 15.458 4.87954 15.3371C4.94823 15.2413 4.98405 15.1315 4.98405 15.0217C4.98409 14.9944 4.98179 14.9663 4.97697 14.939H4.97697ZM4.30499 15.2889C4.19563 15.2116 4.28591 15.0498 4.3496 14.9609C4.41314 14.8713 4.53632 14.7327 4.64568 14.81C4.75981 14.8916 4.65317 15.068 4.60198 15.1396C4.55063 15.212 4.41935 15.3705 4.30499 15.2889Z" fill="#DBA111"/>
<path d="M5.71249 15.1889C5.46068 15.0614 5.16941 15.1659 5.03562 15.431C4.9686 15.5636 4.9555 15.709 4.99867 15.8399C5.03854 15.9616 5.12499 16.0609 5.24219 16.1198C5.35939 16.1795 5.49128 16.1899 5.61317 16.1498C5.744 16.1072 5.85313 16.0105 5.91974 15.878C6.05409 15.6124 5.9648 15.3163 5.71249 15.1889ZM5.43398 15.9257C5.40445 15.9354 5.37642 15.9324 5.34462 15.9165C5.29467 15.8911 5.2771 15.8456 5.2771 15.7948C5.2771 15.7245 5.31092 15.6416 5.33958 15.5851C5.38926 15.4869 5.49014 15.3318 5.60984 15.3922C5.64142 15.4083 5.66031 15.4292 5.66989 15.4584C5.68992 15.5189 5.66981 15.6181 5.61582 15.7244C5.56212 15.8307 5.49419 15.9058 5.43398 15.9257Z" fill="#DBA111"/>
<path d="M6.23256 15.5535L6.18621 15.6863C6.18621 15.6863 6.30473 15.7279 6.34071 15.7398C6.29534 15.8695 6.08624 16.4664 6.08624 16.4664L6.39671 16.5752C6.39671 16.5752 6.60615 15.9789 6.6514 15.8492C6.6876 15.8618 6.80617 15.903 6.80617 15.903L6.88141 15.6886L6.26141 15.4711L6.23256 15.5535Z" fill="#DBA111"/>
<path d="M7.52164 15.8415L7.10207 15.7529L7.08412 15.8383L6.89661 16.7287L7.32359 16.8193C7.46006 16.8475 7.54992 16.814 7.60116 16.7808C7.66621 16.7384 7.7118 16.6688 7.72934 16.5856C7.73415 16.5629 7.73646 16.541 7.73646 16.5195C7.73646 16.4593 7.71741 16.4051 7.68295 16.3585C7.73104 16.3204 7.76535 16.2664 7.77963 16.1991C7.78326 16.1818 7.78542 16.1621 7.78542 16.1417C7.78542 16.0277 7.72033 15.883 7.52164 15.8415H7.52164ZM7.40614 16.5214C7.40168 16.5417 7.3935 16.5686 7.37809 16.5787C7.36385 16.5879 7.33647 16.5891 7.30103 16.5814C7.30103 16.5814 7.2849 16.5778 7.26581 16.5741C7.27944 16.5098 7.28857 16.4671 7.30186 16.4027C7.32011 16.407 7.34344 16.4116 7.34344 16.4116C7.3985 16.4232 7.40906 16.464 7.40906 16.4936C7.4091 16.5054 7.40758 16.5155 7.40615 16.5213L7.40614 16.5214ZM7.37748 16.0448C7.41432 16.0531 7.4414 16.0666 7.45181 16.0824C7.45658 16.0896 7.45893 16.0998 7.45893 16.1117C7.45893 16.119 7.45794 16.1273 7.45605 16.1374C7.4504 16.1635 7.44276 16.1997 7.37017 16.1848C7.37017 16.1848 7.36112 16.1824 7.34866 16.1798C7.36024 16.1259 7.36574 16.099 7.37747 16.0448L7.37748 16.0448Z" fill="#DBA111"/>
<path d="M8.29618 15.9865L7.84045 16.9197L8.10071 16.9397C8.10071 16.9397 8.17114 16.791 8.19928 16.7318C8.25434 16.7364 8.30951 16.7403 8.36347 16.7446C8.38365 16.8069 8.43451 16.9651 8.43451 16.9651L8.78076 16.9921L8.39388 15.7928L8.29618 15.9865Z" fill="#DBA111"/>
<path d="M9.32381 16.7315C9.31805 16.5951 9.29185 15.9742 9.29185 15.9742L8.96301 15.988L9.00459 16.9844L9.66358 16.9571L9.6537 16.718C9.6537 16.718 9.41832 16.728 9.32381 16.7315Z" fill="#DBA111"/>
<path d="M10.2257 16.636C10.2045 16.5012 10.1083 15.8873 10.1083 15.8873L10.0221 15.9012L9.7829 15.9384L9.93732 16.924L10.5892 16.8216L10.5519 16.5852C10.5519 16.5852 10.3193 16.6219 10.2257 16.636Z" fill="#DBA111"/>
<path d="M12.1129 15.9731C12.1102 16.0585 12.0599 16.1321 11.9813 16.1632C11.9378 16.1805 11.8962 16.1805 11.8545 16.1628C11.7906 16.1355 11.7314 16.0662 11.6958 15.9773C11.654 15.8724 11.6455 15.7832 11.6729 15.7206C11.6918 15.6767 11.7288 15.644 11.7853 15.6213C11.8465 15.597 11.9046 15.6194 11.9843 15.6663L12.0574 15.7095L12.1787 15.518L12.1067 15.4707C11.9743 15.3837 11.8104 15.366 11.6687 15.4226C11.5371 15.4751 11.4351 15.5732 11.3812 15.6987C11.3264 15.826 11.3264 15.9716 11.3819 16.1097C11.4867 16.3715 11.7826 16.5005 12.0414 16.3969C12.2284 16.3222 12.3343 16.1801 12.3478 15.9861L12.3539 15.8995L12.1157 15.8818L12.1129 15.9731" fill="#DBA111"/>
<path d="M12.8805 15.7009C12.8132 15.5812 12.5105 15.0383 12.5105 15.0383L12.4347 15.0811L12.223 15.1993L12.7096 16.07L13.285 15.7486L13.1685 15.5396C13.1686 15.5396 12.9626 15.6544 12.8805 15.7009Z" fill="#DBA111"/>
<path d="M13.5205 14.358L13.45 14.4097L13.3264 14.5005L13.7302 15.051C13.7487 15.0759 13.7487 15.0926 13.7471 15.1023C13.7432 15.1307 13.7137 15.1615 13.6875 15.1803C13.6752 15.1891 13.6466 15.2011 13.6174 15.1965C13.5965 15.1935 13.58 15.1822 13.5654 15.1624L13.1662 14.618L12.9002 14.8128L13.2974 15.3544C13.3564 15.4346 13.4296 15.482 13.515 15.495C13.6109 15.51 13.7198 15.4773 13.8211 15.4025C14.0293 15.2502 14.0259 15.048 13.935 14.9241L13.5205 14.358Z" fill="#DBA111"/>
<path d="M14.7323 14.1579C14.6711 14.0944 14.5956 14.0658 14.5163 14.0702C14.5117 14.0085 14.4878 13.9497 14.4401 13.9004C14.3569 13.8145 14.1709 13.7476 13.9997 13.9143L13.6917 14.2122L14.3858 14.9288L14.6991 14.625C14.7993 14.528 14.8213 14.434 14.8222 14.3733C14.8239 14.2954 14.7919 14.2191 14.7323 14.1579ZM14.208 14.1338C14.2183 14.1448 14.231 14.1577 14.231 14.1756C14.231 14.1903 14.223 14.2084 14.1989 14.2314C14.1989 14.2314 14.1924 14.238 14.1836 14.2468C14.1447 14.2065 14.1263 14.1875 14.0869 14.147C14.1564 14.0833 14.1852 14.1105 14.208 14.1338ZM14.3723 14.3805C14.4286 14.3262 14.4827 14.3739 14.4982 14.3901C14.5131 14.4051 14.5301 14.4263 14.5301 14.4446C14.5301 14.4446 14.5301 14.4446 14.5301 14.4452C14.5298 14.4621 14.5155 14.4856 14.4897 14.5106C14.4897 14.5106 14.4777 14.5222 14.4635 14.5356C14.4181 14.4886 14.3874 14.4571 14.3419 14.4104C14.3554 14.3971 14.3723 14.3805 14.3723 14.3805V14.3805Z" fill="#DBA111"/>
<path d="M3.84627 14.0944C3.87341 14.1205 4.07608 14.3138 4.07608 14.3138L4.14291 14.2434L3.76951 13.8873L3.75448 13.903L3.17163 14.5144L3.31522 14.6515C3.31522 14.6515 3.56355 14.3912 3.59029 14.3627C3.61744 14.3885 3.80014 14.5625 3.80014 14.5625L3.86709 14.4923C3.86709 14.4923 3.68438 14.3184 3.65723 14.2926C3.68147 14.2672 3.82226 14.1195 3.84627 14.0944Z" fill="white"/>
<path d="M4.73943 14.6781C4.64688 14.6122 4.53612 14.5859 4.42741 14.6041C4.30805 14.6246 4.201 14.6942 4.12523 14.8009C4.04923 14.9078 4.01875 15.0318 4.03901 15.1507C4.05722 15.2598 4.11849 15.356 4.21111 15.4216C4.30423 15.4879 4.41544 15.5138 4.52465 15.4955C4.64336 15.4756 4.75056 15.4056 4.82622 15.2997C4.88669 15.2142 4.91865 15.1175 4.91865 15.0217C4.91865 14.9978 4.91657 14.9736 4.91267 14.9497C4.89415 14.8408 4.83277 14.7444 4.73943 14.6781H4.73943ZM4.65518 15.1778C4.59255 15.2654 4.42953 15.4579 4.26727 15.3425C4.10558 15.2277 4.23395 15.0107 4.29631 14.9225C4.35887 14.8344 4.52196 14.6422 4.68343 14.757C4.84572 14.8728 4.71773 15.0899 4.65518 15.1778Z" fill="white"/>
<path d="M5.68302 15.2475C5.46453 15.137 5.21139 15.229 5.094 15.4611C5.03489 15.5778 5.02323 15.7048 5.06075 15.82C5.09521 15.9246 5.17011 16.0101 5.27171 16.0612C5.37353 16.1133 5.4877 16.1225 5.59286 16.0879C5.70725 16.0501 5.80275 15.9654 5.86186 15.8488C5.97891 15.6166 5.90212 15.3579 5.68302 15.2475ZM5.31518 15.9746C5.13827 15.8856 5.2324 15.6516 5.28129 15.5554C5.33002 15.4588 5.46244 15.2443 5.63909 15.334C5.68612 15.3576 5.71752 15.3925 5.73247 15.4383C5.76716 15.5443 5.71089 15.6813 5.67416 15.7541C5.63762 15.8263 5.56044 15.953 5.45434 15.9878C5.40894 16.0031 5.36198 15.9985 5.31518 15.9746Z" fill="white"/>
<path d="M6.29458 15.5749L6.26952 15.6458C6.26952 15.6458 6.39315 15.6893 6.42413 15.7002C6.41042 15.739 6.16943 16.4262 6.16943 16.4262L6.35672 16.492C6.35672 16.492 6.5979 15.8049 6.61138 15.7659C6.64235 15.7767 6.76599 15.8199 6.76599 15.8199L6.79829 15.7287L6.30148 15.5543L6.29458 15.5749" fill="white"/>
<path d="M7.50843 15.9053L7.15282 15.8302L7.14805 15.8518L6.97424 16.6787L7.33708 16.7549C7.42933 16.7742 7.50608 16.7646 7.56546 16.7257C7.6168 16.6922 7.65126 16.6388 7.66535 16.5722C7.66895 16.554 7.67111 16.5367 7.67111 16.5197C7.67111 16.4474 7.63525 16.3862 7.57121 16.3423C7.64536 16.321 7.69845 16.2664 7.71552 16.1854C7.71844 16.1728 7.72018 16.1578 7.72018 16.1409C7.72014 16.0581 7.67663 15.9408 7.50843 15.9053H7.50843ZM7.38411 15.9785C7.4439 15.9911 7.48529 16.014 7.50635 16.0465C7.51846 16.065 7.52445 16.0866 7.52445 16.1118C7.52445 16.124 7.52286 16.1368 7.51998 16.1506C7.49688 16.2607 7.40793 16.2595 7.35677 16.2483C7.35677 16.2483 7.30262 16.2372 7.27123 16.2306C7.27854 16.1967 7.31982 16.0004 7.32693 15.9665C7.34965 15.9712 7.38411 15.9785 7.38411 15.9785ZM7.35677 16.3476C7.4578 16.3688 7.47374 16.4486 7.47374 16.497C7.47374 16.5178 7.47049 16.5326 7.47007 16.5351C7.45989 16.5829 7.44167 16.6152 7.41369 16.6332C7.38412 16.653 7.34152 16.6567 7.28763 16.6456C7.28763 16.6456 7.22296 16.6317 7.18831 16.6249C7.19577 16.5893 7.24412 16.3602 7.25143 16.3253C7.28104 16.3315 7.35678 16.3476 7.35678 16.3476H7.35677Z" fill="white"/>
<path d="M8.35515 16.0152L7.94153 16.8619L8.06066 16.8708C8.06066 16.8708 8.14821 16.6868 8.15979 16.6633C8.18497 16.6652 8.38745 16.6809 8.41229 16.6829C8.4202 16.7072 8.48336 16.9035 8.48336 16.9035L8.68853 16.9193L8.38131 15.9669L8.35515 16.0152ZM8.30975 16.3557C8.32974 16.4196 8.36821 16.5429 8.38094 16.5832C8.34008 16.5801 8.24598 16.5728 8.20554 16.5698C8.22409 16.5317 8.28047 16.4158 8.30975 16.3557Z" fill="white"/>
<path d="M9.26099 16.7996C9.25936 16.7584 9.22896 16.0424 9.22896 16.0424L9.20783 16.0432L9.03076 16.0504L9.06715 16.9166L9.59558 16.8942L9.59092 16.7861C9.59101 16.7861 9.2992 16.7984 9.26099 16.7997" fill="white"/>
<path d="M10.1715 16.7115C10.1649 16.6707 10.0537 15.9619 10.0537 15.9619L10.0325 15.9653L9.85779 15.993L9.9921 16.8493L10.5145 16.7668L10.4977 16.6598C10.4977 16.6598 10.2089 16.7052 10.1715 16.7115" fill="white"/>
<path d="M12.178 15.9746C12.1749 16.0874 12.1087 16.1829 12.0055 16.2245C11.9455 16.2484 11.8862 16.2476 11.8288 16.223C11.7481 16.1888 11.6775 16.1079 11.6348 16.0017C11.5866 15.8804 11.5789 15.7742 11.6125 15.6947C11.6387 15.6347 11.6884 15.5897 11.7611 15.5609C11.8562 15.5228 11.9435 15.5662 12.0174 15.6101L12.0359 15.6209L12.0891 15.5374L12.0713 15.5254C11.9566 15.4502 11.8149 15.4346 11.693 15.4834C11.5775 15.5297 11.4878 15.6151 11.4412 15.7245C11.3934 15.8353 11.3938 15.9639 11.4427 16.0851C11.5339 16.3138 11.7914 16.4262 12.0175 16.3361C12.1814 16.2703 12.2704 16.1513 12.2823 15.9815L12.2839 15.9597L12.1792 15.9524L12.178 15.9746" fill="white"/>
<path d="M12.8551 15.7898C12.8347 15.7541 12.4852 15.1277 12.4852 15.1277L12.4659 15.1384L12.312 15.2246L12.7342 15.9809L13.1959 15.7231L13.1434 15.6285C13.1434 15.6285 12.8878 15.7709 12.8551 15.7898Z" fill="white"/>
<path d="M13.5062 14.4493L13.4884 14.4624L13.4176 14.5144L13.7829 15.0121C13.8074 15.0457 13.817 15.0791 13.8118 15.1118C13.8031 15.1711 13.7491 15.2167 13.7264 15.2328C13.7005 15.2524 13.6531 15.2685 13.6077 15.2612C13.5692 15.2555 13.5376 15.2351 13.5123 15.2012L13.1516 14.7092L12.9918 14.827L13.3502 15.3155C13.3984 15.3814 13.4572 15.4202 13.5249 15.4303C13.6316 15.4464 13.7318 15.387 13.7821 15.3503C13.955 15.2231 13.9573 15.0641 13.8826 14.9629L13.5062 14.4493Z" fill="white"/>
<path d="M14.6854 14.2034C14.6183 14.134 14.5325 14.1182 14.4435 14.1525C14.4506 14.1317 14.4548 14.1105 14.4548 14.0894C14.4548 14.0379 14.4343 13.9877 14.3931 13.9453C14.3373 13.888 14.1929 13.8171 14.0452 13.9607L13.7841 14.2136L14.3868 14.8359L14.6537 14.5771C14.721 14.5125 14.7562 14.4428 14.757 14.3723C14.7581 14.3108 14.7331 14.2526 14.6854 14.2034ZM14.2961 14.1764C14.2961 14.22 14.2677 14.2558 14.2449 14.2781C14.2449 14.2781 14.2048 14.317 14.1822 14.3392C14.1579 14.3143 14.0182 14.1703 13.9943 14.1448C14.0105 14.1291 14.036 14.1048 14.036 14.1048C14.1176 14.0254 14.1892 14.0201 14.2549 14.0882C14.285 14.1195 14.2961 14.149 14.2961 14.1764ZM14.4621 14.6279C14.4375 14.6025 14.2746 14.434 14.2496 14.4085C14.2711 14.3878 14.3269 14.3335 14.3269 14.3335C14.4332 14.231 14.5411 14.3397 14.5456 14.3447C14.5791 14.3793 14.5956 14.4121 14.5956 14.4446C14.5956 14.4452 14.5956 14.4456 14.5956 14.4459C14.5952 14.4817 14.5745 14.5191 14.5351 14.558C14.5352 14.558 14.4832 14.6079 14.4621 14.6279V14.6279Z" fill="white"/>
<path d="M5.00142 3.07108L4.63764 3.16919L4.6794 3.29949C4.72965 3.45747 4.68417 3.62287 4.56103 3.73087C4.49253 3.79092 4.41343 3.81849 4.32618 3.81251C4.19361 3.80361 4.04396 3.7178 3.92604 3.58285C3.78707 3.42365 3.71774 3.27041 3.72656 3.14052C3.7327 3.04582 3.77874 2.96263 3.86709 2.88523C3.96467 2.79976 4.08842 2.80309 4.25628 2.83638L4.38079 2.86099L4.46129 2.51258L4.33595 2.48202C4.06645 2.41534 3.78541 2.48084 3.5849 2.65636C3.19222 2.99996 3.16019 3.56111 3.51042 3.96163C3.83588 4.33371 4.40059 4.37426 4.76866 4.05232C5.03376 3.82076 5.12612 3.52449 5.03607 3.19645L5.00142 3.07108Z" fill="#DBA111"/>
<path d="M5.98928 1.2464L5.6177 1.42138C5.6177 1.42138 5.82513 1.86098 5.89643 2.01248C5.79045 2.06231 5.68779 2.11082 5.58169 2.16092C5.51012 2.00953 5.30257 1.56974 5.30257 1.56974L4.81329 1.80073L5.55843 3.38129L6.04813 3.15041C6.04813 3.15041 5.81725 2.66156 5.743 2.50304C5.84906 2.4534 5.95164 2.40493 6.05794 2.35487C6.13242 2.51293 6.36299 3.00186 6.36299 3.00186L6.85257 2.77084L6.10765 1.19066L5.98928 1.2464Z" fill="#DBA111"/>
<path d="M7.646 2.22558C7.62214 2.10789 7.59791 1.98815 7.57436 1.87062C7.72552 1.84021 8.12721 1.7591 8.12721 1.7591L8.05655 1.40804C8.05655 1.40804 7.65467 1.48926 7.50339 1.51982C7.48162 1.4122 7.4636 1.32181 7.44167 1.21435C7.59867 1.18269 8.02853 1.09582 8.02853 1.09582L7.95768 0.744913L7.82909 0.770738L6.84027 0.970712L7.18596 2.68369L8.31242 2.45596L8.24164 2.10524C8.24164 2.10524 7.80406 2.19343 7.646 2.22558Z" fill="#DBA111"/>
<path d="M9.24373 0.704276L8.70201 0.693029L8.69932 0.82367L8.66547 2.44005L9.80261 2.46391L9.81074 2.08543C9.81074 2.08543 9.37418 2.07604 9.21464 2.07278C9.21919 1.85883 9.24373 0.704276 9.24373 0.704276" fill="#DBA111"/>
<path d="M10.9992 1.58558C10.8586 1.48236 10.8175 1.44097 10.8317 1.38458C10.8387 1.35535 10.8705 1.26201 10.9715 1.287C11.0322 1.3026 11.0927 1.3346 11.1196 1.46532L11.1492 1.61042L11.5068 1.48955L11.4846 1.37694C11.4406 1.15576 11.2535 0.967483 11.0187 0.908827C10.8505 0.86706 10.682 0.889401 10.5436 0.972519C10.4166 1.04859 10.3273 1.16867 10.2919 1.31078C10.2021 1.669 10.4436 1.84148 10.6033 1.95577C10.767 2.07281 10.8086 2.11863 10.7836 2.2164C10.7758 2.24696 10.7578 2.27108 10.7296 2.28816C10.6968 2.30744 10.6557 2.3144 10.6223 2.30569C10.5363 2.28453 10.4991 2.2439 10.4628 2.13268L10.4189 1.99935L10.06 2.14612L10.0948 2.26006C10.162 2.48147 10.3227 2.62101 10.5855 2.68686C10.881 2.76078 11.2394 2.62491 11.3287 2.27017C11.4218 1.89639 11.1674 1.7091 10.9992 1.58558Z" fill="#DBA111"/>
<path d="M12.2915 2.51754C12.4294 2.58721 12.7948 2.772 12.7948 2.772L12.9564 2.45248C12.9564 2.45248 12.5907 2.26769 12.4533 2.19825C12.5025 2.10025 12.5442 2.01785 12.5933 1.92004C12.7359 1.99206 13.1279 2.19014 13.1279 2.19014L13.289 1.87062L12.2719 1.35662L12.2131 1.47306L11.4835 2.91612L12.5091 3.43414L12.6708 3.11481C12.6708 3.11481 12.2723 2.91347 12.1283 2.84096C12.1822 2.73372 12.2376 2.62482 12.2915 2.51754Z" fill="#DBA111"/>
<path d="M14.3173 2.68072L12.6874 3.52405L12.9992 3.79521C12.9992 3.79521 13.2682 3.65219 13.366 3.60084C13.4387 3.66416 13.5459 3.75738 13.6174 3.81952C13.5823 3.92351 13.4827 4.21588 13.4827 4.21588L13.9123 4.58962L14.6091 2.53486L14.3173 2.68072Z" fill="#DBA111"/>
<path d="M4.94039 3.17736L4.74829 3.22958L4.76238 3.27305C4.82342 3.46481 4.76836 3.66539 4.61822 3.79667C4.532 3.87233 4.43146 3.90698 4.3204 3.89982C4.16295 3.88926 3.9955 3.79474 3.86035 3.64017C3.70582 3.46326 3.62922 3.28835 3.63936 3.13431C3.64732 3.01734 3.70465 2.91139 3.80976 2.81945C3.94779 2.69876 4.12156 2.72084 4.27329 2.75087L4.31498 2.75894L4.35701 2.57684L4.31525 2.56642C4.07305 2.50697 3.82173 2.5651 3.64232 2.72217C3.28735 3.03306 3.25884 3.54081 3.57624 3.90403C3.87001 4.23991 4.37917 4.27671 4.71156 3.98643C4.95258 3.77505 5.03358 3.51733 4.95194 3.21959L4.94039 3.17737" fill="white"/>
<path d="M6.02639 1.32487L5.73406 1.46309C5.73406 1.46309 5.98015 1.98531 6.01253 2.05396C5.94997 2.08361 5.60274 2.24746 5.53973 2.27688C5.50742 2.20811 5.26148 1.68593 5.26148 1.68593L4.9292 1.84247L5.60001 3.26494L5.93206 3.10862C5.93206 3.10862 5.65973 2.53135 5.62693 2.46148C5.6899 2.43183 6.03673 2.2684 6.0997 2.23864C6.13242 2.30831 6.40483 2.88593 6.40483 2.88593L6.73647 2.72924L6.06569 1.30655L6.02639 1.32487Z" fill="white"/>
<path d="M7.57751 2.3283C7.56388 2.25995 7.48527 1.87076 7.47164 1.80241C7.54438 1.78779 8.02441 1.69078 8.02441 1.69078L7.9881 1.51106C7.9881 1.51106 7.50822 1.60766 7.43506 1.62246C7.42177 1.55544 7.35251 1.21301 7.33922 1.14606C7.41253 1.13103 7.92573 1.02769 7.92573 1.02769L7.88934 0.8479L6.94305 1.03886L7.25432 2.58065L8.20966 2.38779L8.17335 2.208C8.17327 2.20804 7.65143 2.31334 7.57751 2.3283Z" fill="white"/>
<path d="M9.15457 0.789853L8.78772 0.781904L8.78694 0.825224L8.75446 2.35455L9.71752 2.37496L9.7218 2.17082C9.7218 2.17082 9.20045 2.1598 9.12578 2.15821C9.12767 2.07661 9.1546 0.789857 9.1546 0.789857" fill="white"/>
<path d="M10.9927 1.20259C11.1093 1.23178 11.1767 1.30971 11.2052 1.44774L11.2151 1.49598L11.4065 1.4313L11.3992 1.39355C11.3615 1.20509 11.2002 1.04408 10.9977 0.993148C10.8521 0.956834 10.7071 0.975881 10.5888 1.04688C10.4818 1.11118 10.4064 1.21247 10.3767 1.33194C10.3013 1.63241 10.4972 1.77237 10.6543 1.88464C10.8133 1.99836 10.9091 2.07598 10.8683 2.23726C10.8521 2.3044 10.8082 2.34276 10.7744 2.36294C10.722 2.39433 10.6577 2.40414 10.6012 2.39028C10.4852 2.3612 10.4255 2.29883 10.3802 2.15971L10.3654 2.11525L10.1669 2.19625L10.1784 2.23438C10.2361 2.42413 10.3764 2.54443 10.6073 2.60222C10.8609 2.66557 11.1683 2.5508 11.244 2.24866C11.3229 1.93198 11.1151 1.77873 10.9468 1.65574C10.804 1.55032 10.7178 1.47985 10.7471 1.36337C10.7728 1.25924 10.859 1.16911 10.9927 1.20259" fill="white"/>
<path d="M12.5549 1.80308C12.6218 1.83675 13.0888 2.07277 13.0888 2.07277L13.172 1.90892L12.3105 1.47372L12.2908 1.51257L11.601 2.8777L12.4705 3.31715L12.5533 3.15337C12.5533 3.15337 12.0786 2.91334 12.0114 2.87922C12.0427 2.81689 12.2219 2.46295 12.253 2.40058C12.3192 2.43406 12.7561 2.65482 12.7561 2.65482L12.8394 2.49097C12.8394 2.49097 12.4021 2.2704 12.3358 2.23673C12.3666 2.17592 12.5241 1.8639 12.5549 1.80308Z" fill="white"/>
<path d="M14.3574 2.75835L12.8417 3.54272L13.0111 3.68998C13.0111 3.68998 13.3325 3.51958 13.378 3.4955C13.4157 3.52844 13.6821 3.76019 13.719 3.79234C13.703 3.84024 13.5839 4.18831 13.5839 4.18831L13.8716 4.43838L14.4572 2.71154L14.3574 2.75835ZM13.5535 3.40526C13.6252 3.36819 13.8083 3.27303 13.92 3.21491C13.8785 3.33366 13.8099 3.5292 13.7836 3.60531C13.7255 3.55442 13.6117 3.45551 13.5535 3.40526Z" fill="white"/>
<path d="M13.2997 8.76384C13.1754 8.43463 12.7474 8.29161 12.3428 8.44433C12.1741 8.50779 12.0359 8.61389 11.9417 8.73916C12.2088 7.97667 13.2971 7.81487 13.2971 7.10551C13.2971 5.91653 11.6086 6.24957 11.8543 7.10568C11.8543 6.71724 12.4725 6.64606 12.4725 7.10568C12.4725 7.56538 11.3945 7.86684 11.3945 8.64345C11.3945 9.49958 12.2508 9.5788 12.1641 10.3618C12.1494 10.4968 12.0042 10.6742 11.794 10.6742C10.4825 10.6742 10.9507 9.05972 10.4925 8.56844L10.5164 8.23672C10.7813 8.39917 11.4842 8.01861 11.0215 7.43849C11.0215 7.72378 10.4274 7.70799 10.4274 7.16899C10.4274 6.43968 11.1093 6.82024 11.1424 6.98129C11.1097 6.71569 11.0974 6.54715 11.1412 6.39409C10.7736 6.51261 10.7393 6.30014 10.7858 6.21793C10.839 6.12285 10.9102 6.01179 11.0534 6.01179C11.1308 6.01179 11.1773 6.02258 11.2047 6.04144C11.2505 6.07275 11.2839 6.00122 11.2774 6.06775C11.3167 6.00789 11.301 6.08264 11.3389 6.02258C11.3776 5.96294 11.4297 5.8955 11.5211 5.80564L11.5172 5.6711L11.6243 5.71037L11.7271 5.5441C11.6161 5.31405 11.4656 5.42485 11.3547 5.13964C11.262 5.11556 9.8177 5.27263 9.85958 4.69649C9.74182 4.69649 9.46285 4.76101 9.63549 4.9956C9.50125 5.01176 9.4045 4.85931 9.20214 5.27164C9.45562 5.22412 9.32441 5.50748 9.32441 5.5881C9.32441 6.11051 8.62895 6.10168 8.62895 5.85699C8.46135 6.01985 8.55644 6.37599 8.80992 6.46373C8.80992 6.46373 8.71351 6.84467 8.47555 7.08618C8.12233 7.07209 7.55566 7.01071 7.22966 6.70255C7.08906 6.56975 6.97743 6.49739 6.88235 6.46021V6.28753C7.02155 6.21941 7.17419 6.09884 7.33281 5.89735C7.45656 5.74623 7.52355 5.55243 7.50552 5.34662C7.50318 5.32204 7.49954 5.29777 7.49522 5.2741C7.4939 5.26657 7.49204 5.25926 7.4903 5.25176C7.48682 5.23518 7.4828 5.21927 7.47799 5.20288C7.47568 5.19496 7.47352 5.18686 7.47102 5.17902C7.46564 5.16259 7.45974 5.14687 7.45334 5.13127C7.45065 5.12472 7.44876 5.11775 7.44561 5.11162C7.43679 5.0906 7.42695 5.07084 7.41631 5.05092C7.41176 5.04285 7.40695 5.03532 7.40252 5.0279C7.39521 5.01593 7.38828 5.00381 7.3806 4.99226C7.37438 4.9831 7.36787 4.97382 7.36132 4.96458C7.35459 4.95576 7.34746 4.94671 7.34053 4.93785C7.33284 4.92838 7.32527 4.91835 7.31706 4.90896C7.3116 4.90274 7.3057 4.89676 7.29994 4.89104C7.27934 4.86829 7.257 4.84712 7.23367 4.8269C7.23174 4.82523 7.22943 4.82308 7.22716 4.82133C7.21413 4.8102 7.20024 4.79956 7.18657 4.78941C7.18309 4.78676 7.17945 4.78418 7.17555 4.78146C7.16093 4.77116 7.14597 4.76109 7.13037 4.75147C7.12943 4.75087 7.12855 4.75049 7.12787 4.7498C6.97944 4.65892 6.80006 4.61136 6.61061 4.6264C6.15447 4.66271 5.81541 5.04384 5.85351 5.47772C5.88316 5.81575 6.13247 6.08574 6.45661 6.17185C6.3429 6.23531 6.24683 6.27193 6.22513 6.27193C6.22873 6.27424 6.23342 6.27693 6.23853 6.28022C6.23986 6.28083 6.24141 6.28178 6.243 6.28257C6.24739 6.28541 6.25262 6.28833 6.25796 6.2912C6.25928 6.29198 6.26092 6.29272 6.26221 6.29352C6.26952 6.29719 6.27705 6.30102 6.28553 6.30506C6.28686 6.30567 6.28844 6.30616 6.28978 6.30681C6.29728 6.31029 6.30492 6.31393 6.31303 6.31703C6.31534 6.31809 6.31784 6.31904 6.32033 6.31988C6.34017 6.32817 6.36251 6.33563 6.38694 6.3426C6.39042 6.34354 6.3941 6.34434 6.39709 6.34529C6.40697 6.34779 6.417 6.3501 6.42738 6.35259C6.43079 6.35319 6.43427 6.35391 6.43794 6.35467C6.45105 6.35702 6.46475 6.35933 6.4785 6.36099C6.47968 6.36099 6.48085 6.3616 6.48198 6.3616V6.45978C6.47683 6.46092 6.47217 6.46145 6.46736 6.46221C6.319 6.48663 6.22259 6.5323 6.17901 6.66438C6.13569 6.79695 6.18019 6.84485 6.24967 6.93785C6.19097 7.04278 6.03716 7.08201 6.23789 7.31383C6.22327 7.40138 6.24179 7.5408 6.36921 7.5831C6.41079 7.59719 6.44544 7.60469 6.48198 7.61101L6.48181 9.34894C6.35473 9.41627 6.29202 9.50026 6.25734 9.57853C6.25734 9.57853 6.15532 9.35205 6.16206 9.80069C6.27797 9.71076 6.23234 9.90483 6.23234 9.90483C6.07451 10.1093 6.27498 10.0982 6.27498 10.0982C6.41092 9.96242 6.3832 10.1597 6.3832 10.1597C6.3832 10.4004 6.48094 10.4946 6.48177 10.4949V11.819L6.36632 11.8193L6.36742 12.1846L6.56932 12.1843C6.45602 12.2313 6.38127 12.3432 6.39218 12.4669C6.40589 12.6228 6.54989 12.7386 6.7139 12.726C6.87775 12.7128 6.99952 12.5761 6.98555 12.4199C6.97627 12.312 6.90482 12.224 6.80765 12.1836L6.99396 12.1831L6.99318 11.8177L6.88208 11.8182L6.88226 10.6435C6.90516 10.6561 6.92993 10.6648 6.95681 10.6707C6.96753 10.6727 6.97817 10.6742 6.98912 10.6749C6.99393 10.6757 6.99892 10.6757 7.00373 10.6758C6.97385 10.5214 7.0661 10.419 7.0661 10.419C7.11347 10.3477 7.18197 10.2921 7.25994 10.2529C7.49308 10.1359 7.81124 10.1655 7.90632 10.3559C8.50882 10.1971 9.02657 9.59152 9.02657 9.59152L9.32315 10.0963C8.69437 10.3065 7.3248 11.4971 8.27549 11.9095C8.27514 12.0295 8.25905 12.9204 7.68779 12.8496C6.8651 12.7483 6.65994 13.0887 6.81792 13.4713C6.74366 13.794 6.99214 13.906 6.99214 13.906C6.95484 13.7196 7.04448 13.5652 7.38448 13.5671C7.38274 13.9072 7.60233 13.9685 7.60233 13.9685C7.60388 13.6773 7.8062 13.5695 7.98596 13.5703C7.98463 13.8102 8.26337 13.9014 8.26337 13.9014C8.26337 13.9014 8.19271 13.6249 8.5078 13.5703C9.30542 13.4313 8.55631 12.6109 9.76929 12.3849C9.76929 12.3849 9.16528 12.2938 9.16528 11.9636C9.16528 11.6631 9.71204 11.4576 9.90027 11.4576C10.2863 12.1952 10.7057 12.201 10.8157 12.2063C10.9866 12.3972 10.9293 13.0409 10.6825 13.0282C9.77899 12.9797 9.81204 13.5293 9.9133 13.6417C9.90175 13.8551 10.0677 13.9783 10.0677 13.9783C10.0677 13.7496 10.2853 13.6853 10.5643 13.7004C10.5497 13.9798 10.7277 14.0215 10.7277 14.0215C10.7325 13.7404 10.9405 13.6927 11.0883 13.7004C11.0775 13.8975 11.273 13.9555 11.273 13.9555C11.273 13.9555 11.2538 13.7054 11.517 13.7054C12.0164 13.7051 11.2912 12.6348 12.2658 11.5764C11.4096 11.9727 10.9541 10.982 10.9541 10.7919C11.3942 11.3068 12.8209 11.4096 12.8209 10.53C12.8209 9.68967 11.8973 9.37655 12.3295 9.05513C12.5808 8.86826 13.075 9.24579 12.7922 9.63578C13.1977 9.48553 13.4237 9.09285 13.2996 8.76382L13.2997 8.76384ZM7.82711 8.79033C7.50433 8.98012 7.28792 9.22023 6.99366 9.32527C6.94898 9.34095 6.91334 9.34542 6.88237 9.34341V7.70318C6.96034 7.71048 7.16266 7.73817 7.39921 7.83598C7.63349 7.96381 7.63349 8.22805 7.33783 8.29068C7.5247 8.64848 8.17203 8.47331 8.31313 8.18189C8.38223 8.17575 8.44331 8.29912 8.50076 8.41575C8.40991 8.46294 8.22403 8.55669 7.82711 8.79033ZM11.4399 6.07123C11.4044 6.1194 11.3694 6.1673 11.3388 6.20835C11.4206 6.3444 11.5746 6.42945 11.7434 6.41385C11.9765 6.39178 12.1482 6.1848 12.1268 5.95139C12.1255 5.94291 12.1243 5.93526 12.1232 5.92696C12.0982 6.04783 11.9558 6.15019 11.7746 6.16692C11.6374 6.1798 11.5132 6.14042 11.4399 6.07123H11.4399Z" fill="#D1D3D4"/>
<path d="M11.0777 5.94714C11.159 6.08319 11.3133 6.16824 11.482 6.15253C11.7156 6.13071 11.8868 5.92362 11.8654 5.68994C11.8646 5.68169 11.8631 5.67374 11.862 5.66548C11.8372 5.7862 11.6941 5.88882 11.5132 5.9056C11.3757 5.91847 11.2517 5.87901 11.1784 5.80991C11.1431 5.85822 11.1077 5.90609 11.0777 5.94714" fill="#ED1C24"/>
<path d="M9.82806 4.16489C9.82134 4.16489 9.81458 4.1675 9.80658 4.17026C9.65999 4.2012 9.20997 4.51088 9.37425 4.73417C9.23941 4.75011 8.92636 4.65772 8.72442 5.06982C8.97813 5.02207 9.06276 5.24688 9.06276 5.32761C9.06276 5.63342 8.82519 5.75608 8.62775 5.75725C8.49558 5.75759 8.38225 5.70377 8.36996 5.61225C8.37053 5.60955 8.36934 5.60691 8.36996 5.60419C8.36979 5.60393 8.36728 5.60453 8.36728 5.60419H8.36191C8.20446 5.77031 8.30011 6.11655 8.54988 6.203C8.54988 6.203 8.45217 6.58443 8.21422 6.82598C7.97732 6.81678 7.64658 6.78456 7.35494 6.67292C7.27329 6.64187 7.19603 6.6029 7.124 6.55746C7.06841 6.523 7.0151 6.48611 6.96826 6.44199C6.82773 6.30919 6.71679 6.23709 6.62186 6.20032V6.02578C6.76106 5.9575 6.91436 5.8379 7.07298 5.63641C7.19692 5.48544 7.26294 5.29189 7.24484 5.08594C7.24291 5.06132 7.23898 5.03752 7.2341 5.01343C7.233 5.00593 7.23032 4.99945 7.22873 4.99195C7.22509 4.97537 7.22275 4.95687 7.21799 4.94093C7.21583 4.93279 7.21277 4.92483 7.20993 4.91676C7.20471 4.90033 7.19727 4.88672 7.19113 4.87111C7.18841 4.86449 7.18849 4.85618 7.18576 4.84963C7.17671 4.82903 7.16668 4.80998 7.15623 4.79056C7.15206 4.78226 7.14715 4.7743 7.1428 4.76639C7.13549 4.7545 7.12624 4.74303 7.11863 4.73148C7.11231 4.72224 7.10661 4.71383 7.09984 4.70463C7.09313 4.6958 7.08551 4.68626 7.07835 4.67778C7.07071 4.66774 7.06516 4.65763 7.05687 4.64824C7.05149 4.64202 7.04387 4.63535 7.03807 4.62944C7.01725 4.60691 6.99688 4.58484 6.97363 4.56499C6.97128 4.5631 6.96788 4.56129 6.96557 4.55962C6.95251 4.54864 6.93934 4.5374 6.92529 4.5274C6.92158 4.52498 6.91819 4.52185 6.91455 4.51934C6.89971 4.50878 6.88458 4.49954 6.8689 4.48981C6.86799 4.48938 6.86709 4.49014 6.86622 4.48981C6.71786 4.39847 6.54002 4.35148 6.35065 4.36628C6.30986 4.36954 6.26862 4.37679 6.22981 4.38508C5.83554 4.47244 5.5586 4.82256 5.5934 5.21751C5.6229 5.55207 5.86517 5.81868 6.18416 5.90763C6.18742 5.90854 6.19149 5.90948 6.1949 5.91031C6.08096 5.97378 5.98578 6.00967 5.96397 6.00967C5.96768 6.01201 5.97221 6.01693 5.97739 6.02041C5.97872 6.02101 5.98124 6.01957 5.98277 6.02041C5.98735 6.02306 5.99044 6.02808 5.99619 6.03115C5.99759 6.03192 5.99997 6.03062 6.00156 6.03115C6.00838 6.03478 6.01479 6.04052 6.02304 6.04457C6.02456 6.045 6.02724 6.04643 6.02841 6.04726C6.03565 6.05067 6.04414 6.05183 6.05258 6.05531C6.05489 6.0563 6.05545 6.05705 6.05795 6.058C6.07821 6.06599 6.1004 6.07527 6.12508 6.08217C6.1285 6.08294 6.13234 6.08387 6.13583 6.08485C6.14541 6.08735 6.15499 6.08807 6.16536 6.09022C6.16884 6.09117 6.17244 6.09211 6.1761 6.09291C6.18917 6.09541 6.20226 6.09925 6.21638 6.10096C6.21737 6.10096 6.22077 6.10028 6.22175 6.10096V6.19763C6.21713 6.19832 6.21064 6.19937 6.20564 6.20032C6.05762 6.22455 5.96179 6.27209 5.91832 6.4044C5.875 6.53697 5.91869 6.58529 5.98814 6.6783C5.92903 6.78285 5.77704 6.82226 5.97739 7.05423C5.96316 7.14159 5.9817 7.28039 6.10897 7.32276C6.15066 7.33684 6.18536 7.3431 6.22175 7.34961V9.08698C6.09452 9.15442 6.03061 9.23956 5.99619 9.31791C5.99619 9.31791 5.75296 9.28525 5.75989 9.73412C5.87572 9.64374 5.97202 9.64282 5.97202 9.64282C5.81438 9.84712 5.92637 10.0349 5.92637 10.0349C6.06228 9.89874 6.1224 9.89792 6.1224 9.89792C6.1224 10.1396 6.22175 10.2336 6.22175 10.2336C6.22175 10.1972 6.22366 10.1641 6.22981 10.1315C6.22366 10.1641 6.22175 10.1972 6.22175 10.2336V11.5574H6.10629V11.7266V11.9226H6.30768C6.28303 11.9329 6.26081 11.9468 6.24055 11.9629C6.1708 12.016 6.12792 12.098 6.13046 12.1885V12.2046C6.14431 12.3608 6.2885 12.4785 6.45269 12.465C6.61638 12.4522 6.73742 12.3148 6.7239 12.1589C6.71432 12.0515 6.64384 11.9631 6.54667 11.9226H6.73195V11.5574H6.62186V10.3813C6.64496 10.3932 6.66804 10.4029 6.69436 10.4081C6.70564 10.4107 6.71833 10.4122 6.72927 10.4135C6.73408 10.4136 6.73789 10.4133 6.7427 10.4135C6.71282 10.2591 6.80446 10.1584 6.80446 10.1584C6.85221 10.0869 6.92017 10.0312 6.9978 9.99191C7.23124 9.87486 7.54986 9.90359 7.64494 10.0939C8.24748 9.93536 8.7647 9.33133 8.7647 9.33133L9.06276 9.83348C8.43383 10.044 7.06486 11.236 8.01551 11.6487C8.01508 11.7684 7.99839 12.6586 7.42744 12.5886C6.60493 12.4868 6.39955 12.8262 6.55741 13.2089C6.48289 13.5319 6.73195 13.6439 6.73195 13.6439C6.69481 13.4577 6.78407 13.3039 7.124 13.3055C7.12218 13.6455 7.34151 13.7083 7.34151 13.7083C7.34269 13.4168 7.54552 13.3071 7.7255 13.3082C7.72432 13.5481 8.00208 13.6412 8.00208 13.6412C8.00208 13.6412 7.93101 13.3628 8.24644 13.3082C9.0438 13.1692 8.29546 12.3504 9.50852 12.124C9.50852 12.124 8.90433 12.033 8.90433 11.7024C8.90433 11.4024 9.44948 11.1976 9.63741 11.1976C9.63758 11.198 9.63988 11.1972 9.64009 11.1976C10.0261 11.9319 10.4462 11.9385 10.5558 11.9441C10.7266 12.1347 10.6683 12.7787 10.4215 12.7658C9.51796 12.7177 9.54961 13.2683 9.65083 13.3807C9.63958 13.5944 9.80658 13.7164 9.80658 13.7164C9.80658 13.4875 10.0243 13.4251 10.3033 13.4398C10.2884 13.7189 10.4672 13.7593 10.4672 13.7593C10.4713 13.4782 10.679 13.432 10.827 13.4398C10.8166 13.6373 11.0123 13.6949 11.0123 13.6949C11.0123 13.6949 10.9935 13.4455 11.2566 13.4452C11.7562 13.4452 11.0306 12.3742 12.0058 11.3157C11.1497 11.7122 10.6927 10.7218 10.6927 10.5316C11.1328 11.0468 12.5617 11.1479 12.5617 10.2685C12.5617 9.55894 11.9029 9.22479 11.9575 8.94466C11.9675 8.8932 12.0006 8.84434 12.0676 8.79428C12.3192 8.60722 12.8135 8.98491 12.5321 9.3743C12.9373 9.22401 13.1632 8.83054 13.0396 8.50159C12.9149 8.17237 12.4853 8.0294 12.081 8.18204C11.9116 8.24596 11.775 8.35193 11.6809 8.47742C11.9476 7.71497 13.0369 7.55444 13.0369 6.84478C13.0369 5.6558 11.3466 5.98865 11.5923 6.84478C11.5923 6.83191 11.5934 6.81957 11.595 6.80719C11.5973 6.78499 11.6021 6.76521 11.6084 6.74543C11.7034 6.44866 12.2126 6.42773 12.2126 6.84478C12.2126 7.30448 11.1331 7.60649 11.1331 8.38344C11.1331 9.23957 11.9904 9.31661 11.9038 10.0993C11.8891 10.2348 11.7434 10.4135 11.5332 10.4135C11.0825 10.4135 10.8408 10.2219 10.7008 9.95163C10.4335 9.43539 10.5317 8.63046 10.2308 8.30825L10.255 7.97528C10.5201 8.13791 11.2243 7.75787 10.7625 7.17775C10.7625 7.46335 10.1664 7.44531 10.1664 6.90654C10.1664 6.17723 10.8475 6.56036 10.8807 6.72126C10.848 6.45581 10.8359 6.28568 10.8807 6.13319C10.5127 6.25137 10.4778 6.0384 10.5235 5.95596C10.5774 5.86069 10.6491 5.74919 10.7921 5.74919C10.9987 5.74919 10.9855 5.82493 10.9747 5.93179C11.0536 5.81244 11.0756 5.72472 11.2593 5.54511L11.2566 5.41085L11.364 5.44845L11.4661 5.28196C11.3553 5.05192 11.2042 5.16461 11.0928 4.87917C11.0005 4.85493 9.78603 4.74122 9.82806 4.16489ZM9.56222 4.60796C9.56694 4.63843 9.57704 4.66936 9.59444 4.69657C9.57704 4.66936 9.56694 4.63843 9.56222 4.60796ZM6.40167 4.95436C6.51485 4.94531 6.61489 5.02612 6.62454 5.13427C6.63393 5.24189 6.54995 5.33743 6.43658 5.34641C6.32298 5.35553 6.22275 5.27453 6.2137 5.16649C6.2112 5.13783 6.21479 5.11146 6.22444 5.08594C6.22444 5.08533 6.22418 5.08347 6.22444 5.08325C6.22554 5.07939 6.22856 5.0763 6.22981 5.07251C6.25947 5.00901 6.32373 4.96066 6.40167 4.95436ZM9.15406 5.06714C9.16761 5.08975 9.17748 5.11567 9.18628 5.14233C9.17748 5.11567 9.16761 5.08975 9.15406 5.06714ZM8.36191 5.74382C8.36895 5.78554 8.38425 5.82262 8.40487 5.85661C8.38428 5.82258 8.36888 5.7856 8.36191 5.74382ZM8.80766 6.30236C8.77837 6.38164 8.7371 6.47688 8.6922 6.57357C8.7371 6.47688 8.77837 6.38164 8.80766 6.30236ZM11.8259 6.4769C11.7769 6.50315 11.7308 6.53795 11.6943 6.57894C11.7311 6.53729 11.7762 6.50345 11.8259 6.4769ZM12.3979 6.54135C12.4165 6.56185 12.4319 6.58546 12.4462 6.61116C12.4319 6.58546 12.4165 6.56185 12.3979 6.54135ZM6.62186 7.44091C6.69983 7.44841 6.90125 7.47774 7.13743 7.57517C7.14015 7.5765 7.14314 7.57631 7.14548 7.57786C7.37261 7.70736 7.36808 7.96756 7.07567 8.02898C7.2622 8.38709 7.91205 8.21299 8.0531 7.92157C8.12187 7.91544 8.18083 8.03875 8.23839 8.15519C8.1477 8.20245 7.9638 8.29477 7.56707 8.52844C7.24426 8.71846 7.02629 8.95796 6.73195 9.06281C6.68712 9.07905 6.65261 9.08331 6.62186 9.0816V7.44091ZM8.45052 7.45971C8.43729 7.49715 8.41994 7.53257 8.39682 7.56443C8.41994 7.53257 8.43729 7.49714 8.45052 7.45971ZM6.80714 9.24272C6.76939 9.25033 6.73719 9.25615 6.70779 9.25615C6.73719 9.25615 6.76939 9.25033 6.80714 9.24272ZM6.10092 9.3367C6.09269 9.34264 6.08534 9.35137 6.07943 9.35819C6.086 9.3502 6.09123 9.3435 6.10092 9.3367ZM5.86461 9.52736C5.83488 9.56082 5.8079 9.59583 5.78943 9.63208C5.80762 9.59638 5.83545 9.56042 5.86461 9.52736ZM12.2126 10.0617C12.214 10.0843 12.2153 10.108 12.2153 10.1315C12.2153 10.1432 12.2123 10.16 12.2099 10.1799C12.2123 10.16 12.2126 10.1432 12.2126 10.1315C12.2126 10.1071 12.2141 10.0851 12.2126 10.0617H12.2126ZM12.1213 10.4135C12.1109 10.428 12.0992 10.4425 12.0864 10.4565C12.0986 10.443 12.1112 10.4275 12.1213 10.4135ZM6.305 11.9495C6.31765 11.9495 6.33066 11.9524 6.34259 11.9548C6.33066 11.9524 6.31765 11.9522 6.305 11.9522C6.29366 11.9522 6.28342 11.9528 6.27277 11.9548C6.28342 11.9527 6.29371 11.9495 6.305 11.9495Z" fill="#034694"/>
<path d="M10.5106 5.15962L10.6573 5.16735L10.5839 5.26799C10.5839 5.26799 10.4859 5.29897 10.5106 5.15962ZM10.1608 5.15962H10.3721C10.3721 5.15962 10.3645 5.33013 10.5187 5.34539L10.486 5.39969C10.4859 5.39969 10.0713 5.29132 10.1608 5.15962Z" fill="white"/>
<path d="M6.53169 6.61638C6.53899 6.58889 6.28268 6.43894 6.14325 6.40243C6.08452 6.38721 6.03927 6.45783 6.03196 6.4854C6.02484 6.51308 6.02965 6.59684 6.0882 6.61221C6.22773 6.64875 6.52457 6.64395 6.53169 6.61638V6.61638ZM6.51067 6.87221C6.51283 6.84623 6.25719 6.75429 6.1253 6.74441C6.07009 6.74035 6.04101 6.81177 6.03927 6.83752C6.03742 6.86376 6.05563 6.93844 6.11091 6.94234C6.24258 6.95211 6.50901 6.8986 6.51067 6.87221ZM6.22043 6.10079V6.19879C6.25791 6.23631 6.39461 6.28035 6.41021 6.28035V6.08628C6.41025 6.08632 6.30744 6.10787 6.22043 6.10079ZM6.16692 7.05681C6.12689 7.0584 6.11186 7.11149 6.11285 7.13057C6.11319 7.14943 6.13227 7.20157 6.17233 7.20002C6.26757 7.19661 6.45429 7.13667 6.45353 7.118C6.45276 7.09926 6.26219 7.05352 6.16692 7.05681ZM5.97077 9.64383C5.81313 9.84812 5.92666 10.0345 5.92666 10.0345C5.92666 9.8922 6.08895 9.70907 6.12515 9.67333C6.12515 9.67337 6.06956 9.64383 5.97077 9.64383ZM6.47372 10.0773C6.44948 10.2033 6.51219 10.326 6.62075 10.3824C6.64385 10.3944 6.66892 10.4039 6.69524 10.409C6.70652 10.4116 6.71709 10.413 6.72803 10.4142C6.73284 10.4143 6.73769 10.4144 6.74249 10.4146C6.74249 10.4146 6.58285 10.2651 6.64703 10.1238C6.60538 10.0952 6.54324 10.0772 6.47372 10.0772V10.0773ZM6.18521 5.9077C5.94616 5.79104 5.77617 5.49867 5.77617 5.15586C5.77617 4.79207 5.96729 4.48463 6.22989 4.38398C5.83562 4.47134 5.55749 4.82172 5.59229 5.21667C5.62179 5.55123 5.86622 5.81876 6.18521 5.9077ZM8.72319 5.06862C8.9769 5.02087 9.06297 5.24644 9.06297 5.32717C9.06297 5.63298 8.82479 5.7562 8.62735 5.75737V5.75755C9.54319 5.75755 9.22046 4.57148 8.72319 5.06863V5.06862ZM8.11104 7.70051C8.54874 7.70051 8.51932 7.12883 8.42465 7.03409C8.5651 6.89376 8.8541 6.24991 8.8541 6.13097C8.8541 6.13097 8.2764 6.00639 8.36864 5.60549C8.36847 5.60523 8.36847 5.60506 8.36847 5.60472L8.36075 5.60332C8.2033 5.76944 8.29902 6.11592 8.54879 6.20237C8.54879 6.20237 8.45239 6.58331 8.21443 6.82486C7.97754 6.81566 7.64548 6.78449 7.35383 6.67286C7.80467 6.91214 8.26892 7.27377 8.11105 7.70053L8.11104 7.70051ZM6.40116 4.95566C6.51435 4.94661 6.61401 5.02685 6.62367 5.135C6.63306 5.24261 6.54877 5.33773 6.43539 5.34671C6.32179 5.35583 6.22194 5.2756 6.21289 5.16756C6.21289 5.33501 6.34883 5.4711 6.51662 5.4711C6.51912 5.4711 6.52162 5.47093 6.52416 5.47093C6.53919 5.54519 6.54434 5.6241 6.52011 5.68188C6.68396 5.53939 6.82024 5.36115 6.82024 5.16754C6.82024 4.99968 6.68396 4.86362 6.51662 4.86362C6.3769 4.86362 6.25989 4.95772 6.2241 5.08556C6.25065 5.01528 6.31782 4.96238 6.40117 4.95564L6.40116 4.95566ZM9.62677 4.73467C9.42884 4.5364 9.72136 4.16583 9.82882 4.16583C9.71128 4.16583 9.20164 4.49952 9.37465 4.73467C9.47011 4.73467 9.62677 4.73467 9.62677 4.73467ZM7.07663 8.02927C7.23363 8.07747 7.39149 8.0187 7.42826 7.89806C7.46503 7.77719 7.36707 7.64068 7.20977 7.59232C7.18807 7.58584 7.16615 7.58119 7.14456 7.57854C7.37169 7.70804 7.36904 7.96785 7.07663 8.02927ZM6.62117 6.36101C6.62117 6.36101 6.84617 6.4322 7.12298 6.55867C7.06739 6.52421 7.01525 6.48536 6.96841 6.44125C6.82788 6.30845 6.7161 6.23609 6.62117 6.19932V6.36101ZM6.70652 9.25505C7.17694 9.25505 8.80343 8.21659 8.80343 8.21659C8.4017 8.21659 8.23944 8.15445 8.23944 8.15445C8.14875 8.20171 7.96264 8.29509 7.56591 8.52877C7.24309 8.71878 7.02672 8.95905 6.73238 9.0639C6.68755 9.08014 6.65192 9.08393 6.62117 9.08223C6.55343 9.07639 6.4789 9.06719 6.41021 9.0631V7.5696C6.41021 7.41298 6.29586 7.35001 6.22043 7.35001V9.08806C6.09319 9.1555 6.0306 9.2393 5.99618 9.31764C5.99618 9.31764 5.75364 9.28531 5.76057 9.73418C5.76057 9.61512 5.93722 9.40693 6.05972 9.40693C6.05972 9.25505 6.50552 9.25505 6.70652 9.25505ZM10.7636 11.6594C10.6445 11.6594 10.0978 11.6825 10.0487 11.2063C9.92784 11.1804 9.78679 11.1752 9.63866 11.1962C10.0252 11.9339 10.4447 11.9398 10.5545 11.9454C10.7254 12.136 10.6681 12.7796 10.4213 12.7666C9.51775 12.7185 9.55088 13.2682 9.6521 13.3806C9.6521 12.9661 9.93387 12.8679 10.6456 12.8679C10.6457 12.8679 11.2275 12.1233 10.7636 11.6594ZM10.9495 13.4393H10.8271C10.8168 13.6367 11.0123 13.6949 11.0123 13.6949C10.9495 13.6321 10.9037 13.4854 10.9495 13.4393ZM9.8061 13.7173C9.75411 13.6652 9.71128 13.4566 9.78679 13.3806H9.65206C9.64081 13.5943 9.8061 13.7173 9.8061 13.7173ZM12.5032 6.85456C12.5032 6.22355 11.6378 6.32269 11.5951 6.80723C11.6333 6.45208 12.2115 6.39967 12.2115 6.84453C12.2115 7.30423 11.1331 7.60538 11.1331 8.38233C11.1331 9.23846 11.9892 9.31768 11.9026 10.1004C11.8879 10.2359 11.7428 10.4129 11.5326 10.4129C11.0819 10.4129 10.8407 10.2217 10.7007 9.95138C10.8439 10.334 11.096 10.6273 11.6207 10.6273C12.1644 10.6273 12.2137 10.2255 12.2137 10.1322C12.2137 9.34851 11.3953 9.1622 11.3953 8.41744C11.3953 7.69225 12.5032 7.39352 12.5032 6.85456ZM6.12186 9.89894C6.12186 10.1406 6.22043 10.2343 6.22043 10.2343C6.22043 10.0886 6.28029 9.96547 6.31452 9.9315C6.26393 9.88057 6.12186 9.89894 6.12186 9.89894ZM12.375 8.56341C12.1553 8.56341 11.9754 8.7315 11.9565 8.94594C11.9665 8.89448 12.0008 8.84446 12.0678 8.7944C12.3195 8.60734 12.8127 8.98411 12.5314 9.3735C12.686 9.3114 12.7947 9.1605 12.7947 8.98366C12.7947 8.75176 12.6068 8.56341 12.375 8.56341ZM10.4498 13.4393H10.3031C10.2881 13.7183 10.4667 13.7603 10.4667 13.7603C10.3909 13.6848 10.3783 13.5107 10.4498 13.4393ZM6.30472 11.9508C6.28204 11.9508 6.26087 11.9555 6.24068 11.9632C6.17093 12.0163 6.12841 12.0987 6.13095 12.1892C6.1542 12.2636 6.22274 12.3174 6.30472 12.3174C6.40597 12.3174 6.48795 12.2354 6.48795 12.1342C6.48795 12.0328 6.40597 11.9508 6.30472 11.9508ZM7.33549 13.306H7.1234C7.12157 13.646 7.34143 13.7076 7.34143 13.7076C7.27945 13.6452 7.20076 13.4407 7.33549 13.306H7.33549ZM7.99319 11.1564C7.99319 10.3789 9.85533 10.2876 9.85533 9.64705C9.85533 9.38618 9.63014 9.26838 9.47004 9.26838C9.51536 9.31378 9.75756 9.8346 9.06206 9.8346C8.43313 10.0451 7.06357 11.2356 8.01421 11.6483C8.01378 11.768 7.99766 12.6589 7.42671 12.5889C6.60421 12.4871 6.39901 12.8271 6.55687 13.2097C6.55687 12.6292 6.96458 12.737 7.49703 12.737C7.82999 12.737 8.31677 12.3159 8.31677 11.607C8.31677 11.607 7.99319 11.4828 7.99319 11.1564ZM6.41025 11.6329V10.0716C6.30472 10.0716 6.22046 10.2344 6.22046 10.2344V11.5664V11.5578L6.10512 11.5582L6.10611 11.7263C6.19483 11.7263 6.41025 11.6805 6.41025 11.6329L6.41025 11.6329ZM6.73076 13.6447C6.73076 13.6447 6.56615 13.386 6.74253 13.2097H6.55691C6.48239 13.5328 6.73076 13.6447 6.73076 13.6447ZM7.87869 13.3094C7.87869 13.3094 7.79004 13.3094 7.72476 13.3094C7.72358 13.5493 8.00232 13.6402 8.00232 13.6402C7.90409 13.5424 7.8368 13.3507 7.87869 13.3094Z" fill="#6A7AB5"/>
<path d="M2.70082 10.7174L2.69056 10.6859L2.68617 10.6531C2.67114 10.5408 2.64399 10.3317 2.48252 10.2942C2.43936 10.2842 2.39475 10.2894 2.34715 10.3089C2.3601 10.2593 2.35859 10.2143 2.34298 10.173C2.28346 10.0182 2.07273 10.0202 1.95951 10.0217H1.92622L1.89343 10.0156C1.78221 9.99514 1.57474 9.9564 1.48962 10.0985C1.46675 10.1364 1.45766 10.1803 1.46156 10.2315C1.41847 10.2037 1.37503 10.1913 1.33122 10.1934C1.16552 10.2022 1.10216 10.4033 1.06827 10.5115L1.05794 10.5429L1.04256 10.5721C0.988261 10.6718 0.887573 10.8566 0.996327 10.9818C1.02537 11.0153 1.06445 11.0377 1.11436 11.0495C1.0749 11.0822 1.04942 11.1196 1.03828 11.1623C0.995002 11.3222 1.16684 11.4444 1.25886 11.51L1.28586 11.5299L1.30911 11.5534C1.38707 11.6359 1.53195 11.7886 1.68452 11.7239C1.72488 11.7066 1.75836 11.6765 1.78517 11.6327C1.80425 11.6804 1.83171 11.7158 1.8687 11.7402C2.00767 11.8302 2.1769 11.7048 2.26793 11.6378L2.29485 11.6181L2.32473 11.6035C2.42697 11.5545 2.61744 11.4641 2.60305 11.299C2.59923 11.2547 2.58071 11.214 2.54758 11.175C2.59858 11.172 2.64077 11.1565 2.675 11.1288C2.80405 11.0245 2.73687 10.8248 2.70082 10.7174" fill="white"/>
<path d="M1.97491 10.8513C2.90197 11.3992 2.61645 10.7967 2.59608 10.7076C2.57556 10.6188 2.56776 9.95228 1.97491 10.8513Z" fill="#ED1C24"/>
<path d="M1.91664 10.9884C1.68202 12.039 2.16682 11.5816 2.24502 11.5351C2.32318 11.4881 2.95464 11.2745 1.91664 10.9884Z" fill="#ED1C24"/>
<path d="M1.76776 10.9757C0.695677 11.0769 1.28083 11.3968 1.34956 11.4565C1.41848 11.5161 1.81634 12.051 1.76776 10.9757Z" fill="#ED1C24"/>
<path d="M1.73415 10.8298C1.30626 9.84168 1.18285 10.4969 1.14722 10.5811C1.11159 10.6646 0.72584 11.2086 1.73415 10.8298Z" fill="#ED1C24"/>
<path d="M17.0471 10.5721L17.0318 10.5429L17.0213 10.5115C16.9874 10.4033 16.9241 10.2022 16.7588 10.1934C16.7145 10.1913 16.6713 10.2036 16.6282 10.2311C16.6321 10.1803 16.6225 10.1364 16.6003 10.0985C16.5148 9.95631 16.3076 9.99509 16.1964 10.0156L16.1632 10.0216H16.1301C16.0173 10.0202 15.8064 10.0182 15.7471 10.173C15.731 10.2142 15.7298 10.2592 15.7424 10.3089C15.6956 10.2893 15.6509 10.2843 15.6074 10.2942C15.4461 10.3316 15.4184 10.5407 15.4041 10.653L15.3991 10.6858L15.3891 10.7174C15.3529 10.8247 15.286 11.0245 15.415 11.1289C15.4492 11.1566 15.4911 11.1721 15.5424 11.1751C15.5093 11.2141 15.4908 11.2548 15.4869 11.299C15.4726 11.4642 15.6628 11.5546 15.7652 11.6035L15.7948 11.6182L15.8217 11.6379C15.9131 11.7049 16.0824 11.8303 16.221 11.7402C16.2584 11.7159 16.2857 11.6805 16.3045 11.6328C16.3315 11.6765 16.3647 11.7066 16.4054 11.724C16.5579 11.7886 16.7029 11.636 16.7808 11.5535L16.8043 11.53L16.8309 11.51C16.9232 11.4445 17.0949 11.3222 17.0518 11.1624C17.0402 11.1195 17.0152 11.0822 16.9755 11.0496C17.0252 11.0377 17.0644 11.0153 17.0933 10.9819C17.2023 10.8567 17.1017 10.6719 17.0471 10.5721" fill="white"/>
<path d="M16.2276 10.7531C15.4202 10.0409 16.0813 10.1259 16.1722 10.1179C16.2626 10.1103 16.8993 9.91153 16.2276 10.7531Z" fill="#ED1C24"/>
<path d="M16.1152 10.8513C15.1882 11.3992 15.4731 10.7967 15.4939 10.7076C15.5142 10.6188 15.5219 9.95228 16.1152 10.8513Z" fill="#ED1C24"/>
<path d="M16.1732 10.9884C16.408 12.039 15.9231 11.5816 15.8448 11.5351C15.7667 11.4881 15.1355 11.2745 16.1732 10.9884Z" fill="#ED1C24"/>
<path d="M16.3219 10.9757C17.394 11.0769 16.8093 11.3968 16.7403 11.4565C16.6718 11.5161 16.2734 12.051 16.3219 10.9757Z" fill="#ED1C24"/>
<path d="M16.3553 10.8298C16.7834 9.84168 16.9066 10.4969 16.9424 10.5811C16.9778 10.6646 17.3636 11.2086 16.3553 10.8298Z" fill="#ED1C24"/>
<path d="M16.5636 10.8606C16.5625 10.852 16.5598 10.8444 16.5586 10.836C16.6447 10.7728 16.7377 10.705 16.7377 10.705L16.7287 10.685C16.7287 10.685 16.6202 10.7039 16.5162 10.7221C16.464 10.6365 16.3749 10.5785 16.273 10.5685C16.2406 10.4712 16.2083 10.3721 16.2083 10.3721L16.1865 10.3739C16.1865 10.3739 16.1718 10.4772 16.1571 10.5784C16.0944 10.5953 16.0382 10.6308 15.9954 10.6815C15.9726 10.7089 15.9562 10.7398 15.9431 10.7721C15.8383 10.7721 15.7275 10.7724 15.7275 10.7724L15.7228 10.794C15.7228 10.794 15.8261 10.8444 15.9215 10.891C15.9218 10.8998 15.9207 10.9084 15.9215 10.9171C15.9288 11.0012 15.9681 11.0766 16.0316 11.1316C15.9981 11.2364 15.9604 11.3534 15.9604 11.3534L15.9789 11.3646C15.9789 11.3646 16.0658 11.2745 16.1433 11.195C16.1837 11.2083 16.2268 11.2135 16.2703 11.2096C16.3141 11.2063 16.3557 11.1931 16.3934 11.1736C16.4832 11.2382 16.5845 11.3114 16.5845 11.3114L16.601 11.2972C16.601 11.2972 16.5436 11.1887 16.4925 11.0916C16.5455 11.026 16.5705 10.9444 16.5636 10.8606" fill="white"/>
<path d="M16.2259 10.6994C16.1751 10.7033 16.1293 10.7273 16.0967 10.7666C16.064 10.8055 16.0481 10.8547 16.0528 10.9053C16.0617 11.0099 16.1544 11.0877 16.2587 11.0785C16.3099 11.0738 16.3553 11.0499 16.3885 11.0112C16.4208 10.9719 16.4366 10.923 16.4323 10.8721C16.4232 10.7674 16.3304 10.6899 16.2259 10.6994Z" fill="#ED1C24"/>
<path d="M1.86226 10.7531C2.66985 10.0409 2.00843 10.1259 1.91781 10.1179C1.82689 10.1103 1.19035 9.91153 1.86226 10.7531Z" fill="#ED1C24"/>
<path d="M2.168 10.8911C2.26407 10.8444 2.36684 10.794 2.36684 10.794L2.36202 10.7724C2.36202 10.7724 2.25149 10.7721 2.14641 10.7721C2.13369 10.7398 2.11714 10.7088 2.09423 10.6815C2.05152 10.6308 1.99532 10.5954 1.93254 10.5784C1.91815 10.4771 1.9035 10.3739 1.9035 10.3739L1.88131 10.3721C1.88131 10.3721 1.84916 10.4711 1.81727 10.5685C1.71469 10.5785 1.62555 10.6365 1.57341 10.7221C1.46977 10.7039 1.36064 10.685 1.36064 10.685L1.35223 10.705C1.35223 10.705 1.44501 10.7728 1.53104 10.836C1.52964 10.8444 1.52714 10.8521 1.52623 10.8606C1.51911 10.9449 1.54467 11.026 1.59765 11.0916C1.54607 11.1886 1.48867 11.2972 1.48867 11.2972L1.50567 11.3114C1.50567 11.3114 1.60673 11.2382 1.69644 11.1736C1.73416 11.1933 1.7757 11.2059 1.81943 11.2096C1.86328 11.2136 1.90622 11.2083 1.94666 11.195C2.02387 11.2745 2.11074 11.3646 2.11074 11.3646L2.12979 11.3534C2.12979 11.3534 2.092 11.2363 2.0583 11.1319C2.12165 11.0765 2.16095 11.0011 2.16841 10.9171C2.16932 10.9084 2.16798 10.8998 2.16798 10.8911" fill="white"/>
<path d="M1.9933 10.7666C1.9605 10.7273 1.91495 10.7032 1.86391 10.6994C1.75958 10.6899 1.66677 10.7674 1.65768 10.8722C1.65337 10.923 1.66908 10.9719 1.70146 11.0112C1.73417 11.05 1.78018 11.0739 1.83096 11.0785C1.93528 11.0878 2.02806 11.0099 2.03711 10.9053C2.04139 10.8547 2.02579 10.8055 1.9933 10.7666Z" fill="#ED1C24"/>
<path d="M1.98031 6.27302C1.52897 6.19331 1.0968 6.49629 1.01705 6.94762C0.937419 7.39926 1.24005 7.83139 1.69142 7.9111C2.14317 7.99077 2.57554 7.68795 2.65502 7.23639C2.73492 6.78498 2.4321 6.35285 1.98031 6.27302Z" fill="white"/>
<path d="M2.16858 6.90205C2.16127 6.89758 2.14855 6.88933 2.13313 6.87914C2.06494 6.83393 1.93123 6.74551 1.92756 6.74286C1.90904 6.73014 1.89101 6.71802 1.87325 6.70605C1.8138 6.66622 1.76064 6.63157 1.71065 6.60272C1.69138 6.59177 1.67275 6.58155 1.65401 6.57238C1.57452 6.53228 1.49834 6.50805 1.4084 6.50013C1.33907 6.55019 1.2789 6.61218 1.23016 6.68383C1.43695 6.7585 1.63886 6.87808 2.05926 7.13921C2.0833 7.08362 2.16377 6.91246 2.16858 6.90205Z" fill="#ED1C24"/>
<path d="M1.97476 7.34781C1.98317 7.32687 2.02013 7.23334 2.03523 7.19733C1.60442 6.92973 1.40437 6.81132 1.19713 6.73804C1.16498 6.79575 1.1409 6.85873 1.12518 6.92575C1.24348 7.08816 1.5605 7.24773 1.97476 7.34781Z" fill="#ED1C24"/>
<path d="M1.9281 6.66775C2.08941 6.57233 2.27269 6.5983 2.41416 6.64658C2.36141 6.57846 2.29753 6.51893 2.22324 6.47258C2.0896 6.446 1.90504 6.44184 1.75812 6.55862C1.81155 6.59001 1.86672 6.62663 1.9281 6.66775Z" fill="#ED1C24"/>
<path d="M1.28442 7.43851C1.30601 7.45332 1.32812 7.46741 1.35164 7.48062C1.39912 7.50686 1.45055 7.52955 1.50367 7.54897C1.5262 7.55749 1.54911 7.5654 1.57221 7.57286C1.65302 7.59945 1.83845 7.64761 1.85227 7.65083C1.85512 7.64372 1.9246 7.47187 1.95095 7.40659C1.62977 7.32692 1.27806 7.1875 1.11096 7.00619C1.10092 7.08991 1.10482 7.17273 1.12251 7.25126C1.15776 7.32806 1.21437 7.38925 1.28442 7.43851Z" fill="#ED1C24"/>
<path d="M1.86311 7.71798L1.79609 7.70072C1.73395 7.68492 1.66658 7.66724 1.59808 7.64622C1.63148 7.71741 1.68404 7.77289 1.74008 7.81583C1.81517 7.82579 1.88928 7.8239 1.96051 7.81158C1.90904 7.77156 1.86311 7.71798 1.86311 7.71798" fill="#ED1C24"/>
<path d="M2.5349 6.88001C2.51964 6.83014 2.49961 6.78183 2.47442 6.7368C2.3478 6.68034 2.15494 6.62517 1.98651 6.70757L2.21882 6.86097C2.26726 6.85665 2.31182 6.85532 2.35261 6.85631C2.37487 6.85665 2.39555 6.85787 2.41531 6.85979C2.46079 6.8638 2.49961 6.87111 2.5349 6.88001" fill="#ED1C24"/>
<path d="M2.41596 6.92243C2.40918 7.30421 2.2292 7.59866 2.0741 7.78288C2.31686 7.69851 2.50831 7.4893 2.55607 7.21904C2.57242 7.12669 2.56955 7.03584 2.55243 6.9494C2.51472 6.93766 2.46962 6.92785 2.41596 6.92243" fill="#ED1C24"/>
<path d="M1.70012 6.52631C1.80883 6.43047 1.93724 6.3981 2.05565 6.39544C2.02558 6.38583 1.99495 6.37753 1.96303 6.37212C1.79418 6.34232 1.629 6.37371 1.48871 6.44971C1.56342 6.46432 1.63094 6.49053 1.70012 6.52631Z" fill="#ED1C24"/>
<path d="M2.22767 6.92284C2.17243 7.03792 2.13994 7.10839 2.11297 7.1725C2.10468 7.19193 2.09662 7.21078 2.08848 7.2304C2.0756 7.26255 2.03592 7.36248 2.03592 7.36248L2.01225 7.42113L1.90967 7.67526C1.93795 7.71278 1.97222 7.74338 2.00593 7.76727C2.15834 7.59343 2.34801 7.30125 2.35381 6.91879C2.31545 6.91743 2.27326 6.91883 2.22767 6.92284" fill="#ED1C24"/>
<path d="M1.52121 7.62091C1.47005 7.6033 1.41897 7.58323 1.37073 7.55972C1.38875 7.61538 1.41473 7.6648 1.44089 7.70721C1.49561 7.74231 1.55567 7.76999 1.61978 7.78976C1.57824 7.74296 1.54238 7.6876 1.52121 7.62091Z" fill="#ED1C24"/>
<path d="M1.29543 7.51861C1.26075 7.49782 1.22849 7.47468 1.19861 7.44927C1.23242 7.50975 1.27502 7.56518 1.32444 7.61381C1.3127 7.58347 1.3024 7.55208 1.29543 7.51861Z" fill="#ED1C24"/>
<path d="M15.3447 7.23639C15.4245 7.68795 15.8565 7.99077 16.308 7.9111C16.7596 7.83143 17.0621 7.39926 16.9828 6.94762C16.9031 6.49629 16.4709 6.19331 16.0192 6.27302C15.5677 6.35281 15.2651 6.78495 15.3447 7.23639Z" fill="white"/>
<path d="M15.8311 6.90205C15.8382 6.89758 15.851 6.88933 15.8668 6.87914C15.935 6.83393 16.0685 6.74551 16.0719 6.74286C16.0909 6.73014 16.1089 6.71802 16.1266 6.70605C16.1854 6.66622 16.2391 6.63157 16.2891 6.60272C16.3084 6.59177 16.3272 6.58155 16.3456 6.57238C16.4249 6.53228 16.5015 6.50805 16.5913 6.50013C16.6606 6.55019 16.721 6.61218 16.7691 6.68383C16.5625 6.7585 16.3612 6.87808 15.9402 7.13921C15.9161 7.08362 15.836 6.91246 15.8311 6.90205Z" fill="#ED1C24"/>
<path d="M16.025 7.34781C16.0165 7.32687 15.9792 7.23334 15.965 7.19733C16.3949 6.92973 16.5956 6.81132 16.8027 6.73804C16.8347 6.79575 16.8589 6.85873 16.8746 6.92575C16.7562 7.08816 16.4392 7.24773 16.025 7.34781Z" fill="#ED1C24"/>
<path d="M16.0717 6.66775C15.9102 6.57233 15.7271 6.5983 15.5854 6.64658C15.6382 6.57846 15.7025 6.51893 15.7767 6.47258C15.9102 6.446 16.0947 6.44184 16.2414 6.55862C16.1884 6.59001 16.1328 6.62663 16.0717 6.66775Z" fill="#ED1C24"/>
<path d="M16.7149 7.43851C16.6938 7.45332 16.6718 7.46741 16.6478 7.48062C16.6006 7.50686 16.5492 7.52955 16.4962 7.54897C16.4735 7.55749 16.4504 7.5654 16.4274 7.57286C16.347 7.59945 16.1614 7.64761 16.1474 7.65083C16.1443 7.64372 16.0747 7.47187 16.0488 7.40659C16.3699 7.32692 16.7213 7.1875 16.8889 7.00619C16.8989 7.08991 16.8946 7.17273 16.8772 7.25126C16.8419 7.32806 16.7854 7.38925 16.7149 7.43851Z" fill="#ED1C24"/>
<path d="M16.1368 7.71798L16.2033 7.70072C16.2657 7.68492 16.3334 7.66724 16.402 7.64622C16.3681 7.71741 16.3158 7.77289 16.2598 7.81583C16.1849 7.82579 16.1105 7.8239 16.0397 7.81158C16.0905 7.77156 16.1368 7.71798 16.1368 7.71798" fill="#ED1C24"/>
<path d="M15.4648 6.88001C15.4802 6.83014 15.4999 6.78183 15.5257 6.7368C15.6519 6.68034 15.8444 6.62517 16.0129 6.70757L15.7808 6.86097C15.7323 6.85665 15.6878 6.85532 15.6469 6.85631C15.6249 6.85665 15.6042 6.85787 15.5841 6.85979C15.5387 6.8638 15.5003 6.87111 15.4648 6.88001" fill="#ED1C24"/>
<path d="M15.5838 6.92243C15.5904 7.30421 15.7709 7.59866 15.9261 7.78288C15.6827 7.69851 15.491 7.4893 15.4438 7.21904C15.4276 7.12669 15.4299 7.03584 15.4476 6.9494C15.485 6.93766 15.5304 6.92785 15.5839 6.92243" fill="#ED1C24"/>
<path d="M16.2998 6.52631C16.191 6.43047 16.0624 6.3981 15.9442 6.39544C15.9741 6.38583 16.0046 6.37753 16.0368 6.37212C16.2055 6.34232 16.3706 6.37371 16.5109 6.44971C16.4365 6.46432 16.3688 6.49053 16.2998 6.52631Z" fill="#ED1C24"/>
<path d="M15.7721 6.92284C15.8275 7.03792 15.8594 7.10839 15.8873 7.1725C15.8953 7.19193 15.903 7.21078 15.9111 7.2304C15.9242 7.26255 15.9638 7.36248 15.9638 7.36248L15.9874 7.42113L16.0902 7.67526C16.0617 7.71278 16.0277 7.74338 15.9939 7.76727C15.8415 7.59343 15.6515 7.30125 15.6462 6.91879C15.6843 6.91743 15.7267 6.91883 15.7721 6.92284" fill="#ED1C24"/>
<path d="M16.4786 7.62091C16.5298 7.6033 16.5805 7.58323 16.6292 7.55972C16.6107 7.61538 16.5852 7.6648 16.5587 7.70721C16.504 7.74231 16.444 7.76999 16.3801 7.78976C16.4216 7.74296 16.4574 7.6876 16.4786 7.62091Z" fill="#ED1C24"/>
<path d="M16.7045 7.51861C16.7388 7.49782 16.7711 7.47468 16.8011 7.44927C16.7673 7.50975 16.725 7.56518 16.6754 7.61381C16.6869 7.58347 16.6972 7.55208 16.7045 7.51861Z" fill="#ED1C24"/>
</g>
<defs>
<clipPath id="clip0_521_2164">
<rect width="18" height="18" fill="white"/>
</clipPath>
</defs>
</svg>
