<svg width="32" height="32" viewBox="0 0 32 32" fill="none" xmlns="http://www.w3.org/2000/svg">
<path fill-rule="evenodd" clip-rule="evenodd" d="M1.92303 5.80696C1.01771 6.09633 0.331819 6.81292 0.0970203 7.71474C0.0236924 7.9963 0 8.42014 0 9.44948V10.8116H14.7531H29.5062V9.53863C29.5062 8.83854 29.4775 8.11426 29.4423 7.92922C29.2962 7.15837 28.7873 6.43246 28.1209 6.04419C27.4685 5.66405 28.2694 5.68524 14.6931 5.68893C2.83265 5.69212 2.26579 5.69737 1.92303 5.80696ZM23.9456 12.9095C23.3509 13.0384 22.7791 13.2333 22.2897 13.474L21.8558 13.6873H10.9279H0V17.9875C0 22.5709 0.00456345 22.648 0.309315 23.2454C0.539175 23.696 1.03965 24.1712 1.5497 24.4234L2.02517 24.6583L11.4183 24.6748L20.8115 24.6912L21.2986 25.0434C23.9161 26.9358 27.5206 26.6891 29.8882 24.4556C30.4923 23.8857 30.8924 23.3372 31.2906 22.5329C32.6146 19.8591 32.0533 16.7356 29.8746 14.6517C28.9213 13.7399 27.7846 13.1522 26.5048 12.9094C25.8684 12.7887 24.5025 12.7887 23.9456 12.9095ZM26.3255 15.4083C27.8207 15.7958 29.0603 17.0737 29.416 18.5946C29.5702 19.2541 29.5123 20.3142 29.2867 20.9609C28.8613 22.1804 27.8663 23.1692 26.6202 23.6107C26.0126 23.826 24.8671 23.8818 24.253 23.7261C22.3916 23.254 21.0983 21.7183 20.9636 19.8201C20.9107 19.0749 21.0535 18.3908 21.4204 17.6312C21.996 16.4396 23.2388 15.5233 24.5658 15.3122C25.0303 15.2382 25.8399 15.2825 26.3255 15.4083ZM24.4235 16.7903C24.3997 16.8142 24.3801 17.2503 24.3801 17.7594V18.6851L23.4268 18.7023L22.4734 18.7196L22.456 19.5479L22.4386 20.3762H23.4093H24.3801V21.3063C24.3801 22.0245 24.3999 22.2527 24.4671 22.3085C24.525 22.3565 24.8023 22.3748 25.2954 22.363L26.0367 22.3454L26.0679 21.3764L26.0992 20.4074L27.0343 20.3901C27.6863 20.3779 27.9841 20.3496 28.0179 20.2963C28.0992 20.1683 28.078 18.848 27.9933 18.7633C27.9418 18.7118 27.6298 18.6883 26.9948 18.6883H26.0712L26.0539 17.735L26.0367 16.7817L25.2518 16.7643C24.8202 16.7547 24.4474 16.7664 24.4235 16.7903ZM9.96639 19.6617C10.109 19.8044 10.109 21.073 9.96639 21.2157C9.87994 21.3021 9.52699 21.3139 7.03272 21.3139C4.53845 21.3139 4.1855 21.3021 4.09904 21.2157C3.95645 21.073 3.95645 19.8044 4.09904 19.6617C4.1855 19.5753 4.53845 19.5635 7.03272 19.5635C9.52699 19.5635 9.87994 19.5753 9.96639 19.6617Z" fill="#0061FF"/>
</svg>
