<svg width="20" height="20" viewBox="0 0 20 20" fill="none" xmlns="http://www.w3.org/2000/svg">
<path d="M10 12.5C10.8841 12.5 11.7319 12.1488 12.3571 11.5237C12.9822 10.8986 13.3334 10.0507 13.3334 9.16668V4.16668C13.3334 3.28262 12.9822 2.43478 12.3571 1.80965C11.7319 1.18453 10.8841 0.833344 10 0.833344C9.11599 0.833344 8.26814 1.18453 7.64302 1.80965C7.0179 2.43478 6.66671 3.28262 6.66671 4.16668V9.16668C6.66671 10.0507 7.0179 10.8986 7.64302 11.5237C8.26814 12.1488 9.11599 12.5 10 12.5ZM8.33337 4.16668C8.33337 3.72465 8.50897 3.30073 8.82153 2.98817C9.13409 2.6756 9.55801 2.50001 10 2.50001C10.4421 2.50001 10.866 2.6756 11.1786 2.98817C11.4911 3.30073 11.6667 3.72465 11.6667 4.16668V9.16668C11.6667 9.6087 11.4911 10.0326 11.1786 10.3452C10.866 10.6577 10.4421 10.8333 10 10.8333C9.55801 10.8333 9.13409 10.6577 8.82153 10.3452C8.50897 10.0326 8.33337 9.6087 8.33337 9.16668V4.16668ZM16.6667 9.16668C16.6667 8.94566 16.5789 8.7337 16.4226 8.57742C16.2663 8.42114 16.0544 8.33334 15.8334 8.33334C15.6124 8.33334 15.4004 8.42114 15.2441 8.57742C15.0878 8.7337 15 8.94566 15 9.16668C15 10.4928 14.4733 11.7645 13.5356 12.7022C12.5979 13.6399 11.3261 14.1667 10 14.1667C8.67396 14.1667 7.40219 13.6399 6.46451 12.7022C5.52682 11.7645 5.00004 10.4928 5.00004 9.16668C5.00004 8.94566 4.91224 8.7337 4.75596 8.57742C4.59968 8.42114 4.38772 8.33334 4.16671 8.33334C3.94569 8.33334 3.73373 8.42114 3.57745 8.57742C3.42117 8.7337 3.33337 8.94566 3.33337 9.16668C3.33485 10.7894 3.92814 12.3559 5.00204 13.5725C6.07594 14.7891 7.55669 15.5722 9.16671 15.775V17.5H7.50004C7.27903 17.5 7.06707 17.5878 6.91079 17.7441C6.7545 17.9004 6.66671 18.1123 6.66671 18.3333C6.66671 18.5544 6.7545 18.7663 6.91079 18.9226C7.06707 19.0789 7.27903 19.1667 7.50004 19.1667H12.5C12.7211 19.1667 12.933 19.0789 13.0893 18.9226C13.2456 18.7663 13.3334 18.5544 13.3334 18.3333C13.3334 18.1123 13.2456 17.9004 13.0893 17.7441C12.933 17.5878 12.7211 17.5 12.5 17.5H10.8334V15.775C12.4434 15.5722 13.9241 14.7891 14.998 13.5725C16.0719 12.3559 16.6652 10.7894 16.6667 9.16668Z" fill="#BAC1CE"/>
</svg>
