<svg width="18" height="18" viewBox="0 0 18 18" fill="none" xmlns="http://www.w3.org/2000/svg">
<g clip-path="url(#clip0_521_2121)">
<path d="M17.7517 8.99992C17.7517 13.8336 13.8335 17.7518 9.00005 17.7518C4.16657 17.7518 0.248169 13.8336 0.248169 8.99992C0.248169 4.16643 4.16657 0.248245 9.00005 0.248245C13.8335 0.248181 17.7517 4.16643 17.7517 8.99992Z" fill="white" stroke="#0053A0" stroke-width="0.627368"/>
<path fill-rule="evenodd" clip-rule="evenodd" d="M0.907067 9.10336C0.850516 4.63484 4.42843 0.965099 8.89716 0.908441C13.3657 0.851868 17.0354 4.43002 17.0921 8.89854C17.1485 13.3671 13.5705 17.0368 9.10199 17.0932C4.63347 17.1499 0.963726 13.5719 0.907067 9.10336H0.907046H0.907067ZM8.89588 0.807525C4.37156 0.864803 0.748852 4.58032 0.806151 9.10464C0.863472 13.629 4.57895 17.2515 9.10327 17.1944C13.6276 17.1371 17.2501 13.4216 17.193 8.89725C17.1357 4.37293 13.4202 0.750225 8.89588 0.807525Z" fill="#0053A0"/>
<path fill-rule="evenodd" clip-rule="evenodd" d="M8.70287 3.62185C7.70932 3.6195 6.55498 4.01333 5.77909 4.6556C5.77652 4.65731 5.77652 4.66415 5.78187 4.66693C6.22551 4.84289 6.52976 5.07637 7.00397 5.34191C7.02108 5.35132 7.02707 5.34726 7.0307 5.33186C7.26011 4.16663 8.68256 4.4899 8.81533 3.64024C8.80956 3.63447 8.81041 3.62399 8.79822 3.62335C8.76679 3.62249 8.73472 3.62207 8.70287 3.62185ZM9.29446 3.62335C9.28463 3.62335 9.28142 3.62741 9.28185 3.64302C9.2222 3.79268 9.39752 3.94855 9.49972 4.04946C9.50955 4.05865 9.5258 4.06935 9.53799 4.07469C10.173 4.33318 10.8758 4.52411 11.0297 5.25446C11.0329 5.2658 11.035 5.27307 11.0468 5.26302C11.3853 5.03852 11.7209 4.81082 12.0634 4.59488C12.081 4.58761 12.0746 4.57948 12.0634 4.57243C11.2895 4.02209 10.3224 3.66397 9.29446 3.62335ZM5.33459 5.02548C4.71539 5.57453 4.18408 6.2927 3.90738 7.0996C3.90428 7.10751 3.909 7.11114 3.92003 7.11221C4.52596 7.16695 4.72394 6.37673 5.18834 6.08296C5.19455 6.07932 5.2001 6.07612 5.19968 6.06863C5.16675 5.70859 5.15093 5.4052 5.33459 5.02548ZM12.809 5.19823C12.8432 5.47768 12.8171 5.74279 12.7429 6.00107C12.7397 6.01326 12.7401 6.02267 12.754 6.03207C13.2017 6.27153 13.4444 6.97089 13.9618 6.99826C13.9682 7.00104 13.9781 7.00146 13.9744 6.99291C13.7948 6.36881 13.2783 5.63033 12.809 5.19823ZM14.1406 7.40192C13.5056 8.03863 14.5361 9.10552 13.138 9.70096C13.0147 9.73731 12.8962 9.7805 12.7846 9.78092C12.4737 9.78242 12.0314 9.54531 12.0342 10.0172C12.0342 10.0257 12.0419 10.0317 12.0521 10.0358C12.484 10.2207 13.0677 10.6216 13.0771 11.2395C13.0983 11.9761 12.323 12.4721 12.4459 13.1717C14.1027 11.7389 14.7841 9.62356 14.1406 7.40192ZM3.78343 7.50711C3.77809 7.50861 3.77418 7.51438 3.76934 7.52571C3.14193 9.24021 3.75842 11.9055 5.68307 13.3134C5.6835 13.2771 5.70466 13.2014 5.72668 13.1505C5.73481 13.1308 5.73353 13.1056 5.72668 13.0816C5.65613 12.7716 5.47119 12.459 5.29523 12.1548C4.68819 11.1471 5.02519 10.4561 6.00527 10.0078C6.01789 10.0037 6.02066 9.99665 6.01382 9.98361C5.99864 9.95026 5.98368 9.91733 5.96892 9.88355C5.96443 9.87457 5.96892 9.85661 5.94648 9.85982C5.72668 9.88718 5.47931 9.90664 5.25567 9.89659C4.91914 9.82155 4.59775 9.68749 4.35575 9.33108C3.92249 8.72622 4.51584 7.9127 3.8003 7.5116C3.79438 7.50818 3.7888 7.50583 3.78343 7.50711ZM12.8567 9.98532C12.8729 9.98532 12.8896 9.98767 12.9058 9.99216C13.1231 10.0317 13.4517 10.1596 13.6469 10.4012C13.6595 10.4168 13.6537 10.4298 13.6343 10.4281C13.3206 10.4187 12.9683 10.3841 12.7243 10.1919C12.6897 10.1645 12.6578 10.1373 12.6822 10.0721C12.7002 10.0309 12.7577 9.99922 12.8058 9.99067C12.8233 9.98767 12.84 9.98489 12.8567 9.98532ZM5.09833 10.1132C5.11586 10.1127 5.13297 10.1132 5.1505 10.1145C5.16504 10.1162 5.17979 10.1162 5.18963 10.1258C5.24992 10.1976 5.23795 10.2981 5.12527 10.3759C4.88731 10.5284 4.61146 10.5369 4.35737 10.5478C4.34743 10.5483 4.33003 10.5374 4.34754 10.5209C4.57904 10.3088 4.83514 10.1157 5.09833 10.1132ZM9.4003 13.003C9.39709 13.0025 9.39346 13.0034 9.39046 13.0057C9.19547 13.0983 8.88909 13.1434 8.71676 13.0466C8.69602 13.0363 8.68384 13.044 8.67571 13.056C8.36612 13.5802 7.63042 13.5678 7.1081 13.4346C6.72004 13.3472 6.34032 13.2364 6.02667 13.5471C7.65971 14.7247 10.1771 14.7615 12.0664 13.4656C11.71 13.2974 11.3865 13.4184 10.9946 13.5092C10.551 13.6123 9.92818 13.7055 9.42553 13.0143C9.41697 13.0119 9.40928 13.0034 9.4003 13.003ZM9.07403 13.121C9.07852 13.1214 9.08344 13.1218 9.08943 13.1223C9.14608 13.1289 9.17837 13.1578 9.21301 13.1969C9.22968 13.2189 9.23567 13.2446 9.23289 13.2717C9.22348 13.5137 9.182 13.7585 9.10054 13.9704C9.09883 13.9805 9.09156 13.9826 9.08793 13.9704C8.99343 13.6722 8.83201 13.3703 9.03576 13.1353C9.0488 13.124 9.05971 13.1203 9.07403 13.121Z" fill="#0053A0"/>
<path fill-rule="evenodd" clip-rule="evenodd" d="M9.59697 1.36627C9.64551 1.43035 9.69404 1.50167 9.67694 1.57858C9.61451 1.9304 9.54737 2.28148 9.47596 2.63191C9.46335 2.71016 9.40647 2.74373 9.34939 2.79633C9.73424 2.86624 10.4541 3.00222 10.8402 3.07491C10.83 2.92247 10.9465 2.83331 10.9933 2.6952C10.865 2.78499 10.7013 2.81792 10.549 2.78521C10.3906 2.75528 9.99829 2.67724 9.84028 2.64453C9.86594 2.52201 9.88219 2.39715 9.91063 2.27464C10.0646 2.3018 10.3124 2.36016 10.4659 2.37877C10.5967 2.40977 10.6957 2.22803 10.7669 2.14251C10.7169 2.15384 10.6228 2.15962 10.5717 2.14807C10.4105 2.11679 10.1208 2.05577 9.95959 2.02299C9.97391 1.90619 9.99871 1.791 10.0231 1.67704C10.2993 1.74967 10.8768 1.77676 11.0818 2.00893C11.0887 1.88075 11.0162 1.72151 11.0891 1.63629C10.7075 1.5622 9.97862 1.43747 9.59697 1.36627ZM9.41289 1.3719C9.04514 1.37361 8.34044 1.4123 7.97291 1.4169C8.05159 1.54632 7.93464 1.65995 7.93186 1.78954C8.05651 1.67646 8.3676 1.64261 8.52945 1.64753C8.52902 2.00226 8.56558 2.35845 8.5705 2.71209C8.57264 2.77901 8.52047 2.82156 8.47771 2.84849C8.63763 2.84678 8.89035 2.82711 9.04023 2.82455C8.96646 2.75677 8.92905 2.75121 8.92777 2.65586C8.90168 2.32938 8.88864 1.94876 8.87966 1.62359C9.04514 1.61153 9.34939 1.64122 9.48451 1.72343C9.48387 1.58061 9.34575 1.43856 9.41289 1.3719ZM7.80422 1.46753C7.56925 1.51878 7.04586 1.5556 6.84338 1.70941C6.60136 1.87744 6.54555 2.25027 6.8592 2.41383C7.05676 2.49465 7.43156 2.40677 7.62676 2.42238C7.76103 2.42794 7.81769 2.61395 7.72939 2.70503C7.53868 2.87458 7.02063 2.87458 6.79442 2.80616C6.8498 2.93594 6.9118 3.04797 6.97038 3.17604C7.04735 3.12772 7.18397 3.11575 7.27099 3.10014C7.45636 3.0732 7.89552 2.95433 8.01931 2.80488C8.16726 2.63106 8.17453 2.37919 8.03043 2.21991C7.90086 2.07794 7.49955 2.10302 7.32893 2.1144C7.23165 2.1144 7.15126 2.14871 7.0589 2.10315C6.98022 2.04901 6.98471 1.91387 7.0728 1.86829C7.24213 1.77857 7.62591 1.7647 7.80272 1.83733C7.79246 1.71345 7.80828 1.59141 7.80422 1.46753ZM11.5894 1.78392C11.6211 1.86226 11.6395 1.93623 11.602 2.01032C11.4626 2.31078 11.3042 2.60903 11.1567 2.91178C11.1152 3.00008 11.0622 3.0561 10.964 3.09309C11.0949 3.16001 11.3196 3.27226 11.4517 3.33918C11.3964 3.13692 11.5336 2.9554 11.6121 2.79226C11.6876 2.83353 11.89 2.92803 11.9396 3.01013C12.0061 3.12259 12.0224 3.23805 12.0367 3.35457C12.0431 3.45998 12.0517 3.53951 11.9428 3.57693C12.0957 3.63914 12.336 3.76721 12.4782 3.83563C12.3653 3.60301 12.435 3.28658 12.2843 3.05802C12.3824 3.0623 12.5471 3.07876 12.6514 3.01441C12.84 2.90387 12.8859 2.72898 12.8216 2.49828C12.7861 2.37684 12.6668 2.30757 12.5654 2.25925C12.3234 2.13952 11.8317 1.90213 11.5894 1.78392ZM6.07561 1.93858C5.73823 2.12804 5.08976 2.4521 4.75678 2.6473C4.84367 2.67018 4.90396 2.70268 4.94522 2.77815C5.11178 3.07727 5.2779 3.37616 5.44296 3.67528C5.48572 3.74947 5.47268 3.83884 5.4389 3.92137C5.78505 3.72916 6.43309 3.3922 6.78031 3.20149C6.67191 3.13991 6.74076 2.93444 6.69714 2.79932C6.66293 2.91734 6.54106 3.02467 6.44164 3.09736C6.28043 3.20555 5.902 3.3984 5.73416 3.49397C5.67302 3.38557 5.6108 3.27461 5.55286 3.16343C5.68371 3.08218 5.98709 2.94791 6.11538 2.86261C6.19042 2.76853 6.14638 2.63277 6.16306 2.52223C6.13013 2.562 6.08737 2.59792 6.04055 2.62208C5.89986 2.70033 5.59113 2.87137 5.44852 2.94834C5.39443 2.84572 5.32965 2.74843 5.28282 2.64175C5.54345 2.52351 6.01083 2.20708 6.3078 2.22397C6.23361 2.11583 6.11431 2.06678 6.07561 1.93858ZM11.8945 2.21136C12.0232 2.27571 12.2122 2.35974 12.3292 2.42366C12.6394 2.58487 12.4188 2.92204 12.1943 2.79504C12.066 2.75228 11.8415 2.6255 11.7164 2.57418C11.7703 2.44889 11.8391 2.33665 11.8945 2.21136ZM4.45176 2.87372C4.41612 2.92504 4.36945 2.97186 4.31392 3.00179C4.1284 3.08817 3.79602 3.38792 3.7163 3.57693C3.60518 3.7933 3.60636 3.99235 3.73736 4.24485C3.88666 4.54268 4.09834 4.6808 4.42219 4.6808C4.74391 4.66092 5.03361 4.37912 5.16596 4.20551C5.23886 4.12149 5.30963 4.02891 5.41654 3.98187C5.32674 3.88224 5.23224 3.78774 5.14073 3.68939C5.10802 3.80891 5.05029 3.91175 4.97204 4.01138C4.85637 4.14265 4.67686 4.34898 4.47282 4.33914C4.26875 4.32909 4.20381 4.23181 4.11282 4.13239C4.02184 4.03297 3.95924 3.91688 3.97504 3.73856C3.99082 3.56025 4.3443 3.23099 4.59946 3.22116C4.54094 3.10998 4.51035 2.98619 4.45176 2.87372ZM3.21005 4.07317C3.11694 4.19333 2.95147 4.40221 2.85285 4.51788C2.94442 4.50441 3.0278 4.51211 3.09755 4.56684C3.36534 4.7753 3.63276 4.9859 3.89908 5.19564C3.96747 5.24738 3.99839 5.32478 4.00735 5.4133C4.10589 5.29592 4.26456 5.09024 4.36032 4.97585C4.27738 4.98676 4.19661 4.99125 4.13253 4.93951C3.86051 4.72976 3.59308 4.5166 3.32255 4.30536C3.24856 4.24913 3.20729 4.17302 3.21005 4.07317ZM2.57443 4.8805C2.40473 5.22921 2.0536 5.87725 1.88679 6.22597C1.97935 6.18919 2.04888 6.19582 2.13286 6.23858C2.43471 6.38974 2.73805 6.53663 3.03986 6.68586C3.11392 6.72328 3.17877 6.79747 3.2086 6.87444C3.37686 6.51995 3.6873 5.89265 3.88082 5.54115C3.84094 5.54115 3.80098 5.5078 3.77255 5.47958C3.6928 5.40389 3.65256 5.31751 3.57144 5.24332C3.59402 5.38401 3.57369 5.55248 3.51235 5.6891C3.44107 5.84133 3.25181 6.21036 3.18052 6.3628C3.06231 6.32282 2.97097 6.25483 2.85708 6.20352C2.91412 6.06711 3.08264 5.75795 3.1411 5.62304C3.14174 5.54393 3.04769 5.4103 2.98083 5.31473C2.97794 5.36605 2.95584 5.41821 2.93159 5.46547C2.85888 5.61363 2.69497 5.94161 2.62082 6.08828C2.51687 6.03568 2.38164 5.9848 2.27771 5.93348C2.35043 5.78553 2.53402 5.41522 2.60958 5.26855C2.66803 5.15331 2.76275 5.05688 2.87957 4.99852C2.75852 4.94977 2.67833 4.96473 2.57443 4.8805ZM2.79236 6.81949C2.84083 6.89796 2.85139 7.03073 2.85428 7.12459C2.86706 7.30162 2.7632 7.63729 2.73611 7.80962C2.40999 7.74569 2.08215 7.66701 1.75738 7.59582C1.66769 7.57871 1.63151 7.50666 1.57881 7.42969C1.54462 7.57657 1.48638 7.85409 1.45508 8.00226C1.52059 7.95394 1.56942 7.91631 1.64633 7.93341C1.9938 8.00632 2.33944 8.08265 2.68555 8.16112C2.76527 8.17822 2.84528 8.23894 2.88659 8.31441C2.96067 7.97831 3.09943 7.36405 3.17206 7.02624C3.13648 7.02923 3.09934 7.03522 3.06802 7.01534C2.96687 6.95953 2.89492 6.8723 2.79236 6.81949H2.79236Z" fill="#0053A0"/>
<path fill-rule="evenodd" clip-rule="evenodd" d="M2.79642 9.69972C2.74755 9.76985 2.67749 9.82736 2.59393 9.84319C2.27604 9.9332 1.93703 10.002 1.57442 10.0893C1.50164 10.1154 1.4576 10.0848 1.38879 10.0318C1.42095 10.1789 1.47051 10.4187 1.50551 10.5658C1.63463 10.385 1.87501 10.3918 2.06517 10.3283C2.11034 10.4808 2.16349 10.8004 2.21425 10.9496C2.29404 11.0326 2.42652 11.0441 2.53064 11.0807C2.5036 11.0401 2.45275 10.9537 2.44488 10.9047C2.40794 10.7435 2.33828 10.4359 2.30142 10.2761C2.42305 10.249 2.54225 10.2131 2.66564 10.196C2.73094 10.451 2.88389 10.9259 2.7655 11.1692C2.88966 11.1296 2.99207 10.9928 3.10299 11.0217C3.02987 10.6792 2.86391 10.0452 2.79641 9.69972H2.79641H2.79642ZM2.8133 11.2592C2.77271 11.2579 2.7318 11.2616 2.69094 11.2661C2.41565 11.3251 2.15987 11.4608 2.04269 11.7484C1.88826 12.1495 2.19329 12.7663 2.60239 12.9171C2.86545 13.0111 3.12565 12.9406 3.32094 12.7948C3.50233 12.6705 3.62536 12.4629 3.6205 12.1846C3.60913 11.8705 3.43353 11.559 3.17752 11.3817C3.05576 11.2962 2.93515 11.2624 2.8133 11.2592H2.8133H2.8133ZM2.80205 11.6094C2.95388 11.6086 3.10809 11.6473 3.21266 11.8033C3.34267 11.965 3.38212 12.192 3.29001 12.328C3.15917 12.4999 2.94825 12.6025 2.72613 12.5936C2.48461 12.585 2.23991 12.2759 2.31128 11.9793C2.37914 11.7377 2.65324 11.6216 2.80205 11.6094ZM3.7541 12.7781C3.69475 12.7798 3.63695 12.7916 3.57968 12.8131C3.30496 12.9145 3.10336 13.0917 3.02286 13.3953C2.91 13.8108 3.36431 14.3562 3.79342 14.4331C4.0689 14.4795 4.31281 14.3801 4.47958 14.2022C4.63662 14.0483 4.73426 13.818 4.68073 13.5444C4.61458 13.2371 4.36622 12.9737 4.08312 12.8441C3.95826 12.7978 3.85296 12.7744 3.7541 12.7781ZM3.89048 13.1142C4.0106 13.1146 4.11981 13.1627 4.20125 13.2478C4.35168 13.3868 4.4226 13.5574 4.35314 13.7383C4.2575 13.9508 4.07981 14.0881 3.85953 14.1182C3.62021 14.1514 3.3109 13.8347 3.34342 13.5736C3.3824 13.3342 3.53858 13.2365 3.66689 13.1687C3.74289 13.1317 3.81839 13.1138 3.89048 13.1142ZM4.95934 13.7342C4.95698 13.8711 4.81673 13.8306 4.70591 14.003C4.87232 13.9863 5.15133 14.1347 5.28154 14.232C5.08805 14.5257 4.88686 14.8129 4.69063 15.1036C4.65417 15.1648 4.59027 15.1716 4.52322 15.177C4.64562 15.2616 4.86783 15.41 4.99034 15.4947C4.96596 15.397 4.97494 15.3159 5.02818 15.236C5.20136 14.9798 5.3769 14.7243 5.54965 14.4669C5.55949 14.4564 5.56761 14.4323 5.58664 14.4385C5.72839 14.5155 5.94968 14.7081 5.99971 14.8633C6.05915 14.7489 6.04782 14.5663 6.15707 14.5217C5.85603 14.3143 5.26166 13.9371 4.95934 13.7342ZM6.2319 14.5847C6.27595 14.6649 6.26461 14.7566 6.23896 14.8409C6.14061 15.1701 6.01532 15.4662 5.91675 15.7944C5.89473 15.874 5.84492 15.9212 5.744 15.9447C6.05637 16.0437 6.41898 16.1759 6.74931 16.2768C7.0914 16.3875 7.39863 16.305 7.43562 15.946C7.45722 15.7399 7.23764 15.6446 7.15169 15.5986C7.37789 15.6266 7.53012 15.5058 7.54231 15.2935C7.56155 15.1423 7.42386 14.9771 7.11214 14.8759C6.8885 14.803 6.45725 14.6478 6.2319 14.5847ZM10.9653 14.8434C10.8204 14.8809 10.5779 14.9822 10.4353 15.0307C10.5148 15.0649 10.5698 15.0882 10.5967 15.1684C10.6985 15.4776 10.8214 15.766 10.9271 16.0743C10.9559 16.1714 10.9914 16.2813 10.9384 16.3766C11.2668 16.2755 11.8366 16.0698 12.162 15.9618C12.1434 15.9347 12.1152 15.9127 12.1169 15.8785C12.1088 15.7624 12.138 15.6683 12.1282 15.5509C12.0529 15.7074 11.8875 15.7876 11.719 15.8532C11.6241 15.8838 11.3572 16.0027 11.2632 16.0121C11.1592 15.6993 11.0355 15.37 10.9303 15.0572C10.9014 14.9762 10.9226 14.9196 10.9653 14.8434ZM6.54149 14.9461C6.66165 14.9884 7.00395 15.0666 7.12069 15.1154C7.28339 15.1827 7.17777 15.4744 7.00801 15.437C6.88892 15.4177 6.55453 15.3241 6.44293 15.2822C6.47436 15.1701 6.50686 15.0572 6.54149 14.9461ZM8.13434 15.1154C8.14481 15.137 8.1384 15.1896 8.12044 15.2133L7.50896 16.2483C7.45444 16.3371 7.40312 16.3775 7.32722 16.4356C7.46662 16.4572 7.7078 16.5265 7.84784 16.5534C7.80272 16.4553 7.80679 16.3339 7.87969 16.2402C8.09564 16.2593 8.4993 16.2885 8.71396 16.3146C8.75758 16.4166 8.81338 16.5391 8.71396 16.6323C8.85614 16.6313 9.10415 16.6259 9.2427 16.6353C9.18027 16.5611 9.11955 16.4865 9.09346 16.3905C9.02847 16.199 8.78687 15.4874 8.71097 15.267C8.69793 15.227 8.71546 15.1774 8.71674 15.1729L8.13434 15.1154ZM9.75027 15.1233C9.59419 15.149 9.32865 15.1798 9.17941 15.1981C9.2504 15.248 9.30299 15.2787 9.31304 15.3628C9.34982 15.6858 9.41503 15.9954 9.4565 16.3187C9.46506 16.4198 9.46677 16.5498 9.39578 16.6323C9.73787 16.5998 10.3673 16.4976 10.7079 16.4581C10.6949 16.4279 10.6728 16.3995 10.6814 16.3668C10.6968 16.2511 10.74 16.1517 10.7543 16.0348C10.6414 16.1639 10.4781 16.2332 10.3002 16.2642C10.1982 16.2813 9.90058 16.3294 9.808 16.3272C9.7693 15.9995 9.71264 15.6535 9.67287 15.326C9.66176 15.2405 9.69319 15.1892 9.75027 15.1233ZM8.3847 15.364L8.634 16.0431C8.47813 16.0341 8.1803 16.0157 8.02465 15.9982L8.3847 15.364ZM6.38798 15.4979C6.53101 15.5537 6.76834 15.6341 6.89555 15.6833C7.17414 15.7803 7.1008 16.1538 6.76321 16.0377C6.61162 15.9896 6.40957 15.9266 6.26568 15.8718C6.30032 15.7493 6.35334 15.6215 6.38798 15.4979Z" fill="#0053A0"/>
<path fill-rule="evenodd" clip-rule="evenodd" d="M13.862 3.34476C13.6415 3.33535 13.4957 3.39607 13.3418 3.52628C13.1695 3.683 13.0521 3.86494 13.0534 4.13797C13.0591 4.35306 13.2941 4.69109 13.5767 4.8694C13.6563 4.9282 13.7824 5.00153 13.7944 5.09967C13.888 5.00388 13.9858 4.90938 14.0815 4.8198C13.8521 4.75095 13.4636 4.52817 13.4078 4.2716C13.3724 4.06742 13.4224 4.00071 13.5092 3.8891C13.6713 3.69347 13.8355 3.6227 14.0815 3.69069C14.3015 3.77835 14.4987 4.05395 14.5158 4.25471C14.6302 4.19485 14.7386 4.14717 14.8547 4.0888C14.7625 4.03171 14.7219 3.96329 14.6595 3.88055C14.5243 3.68364 14.2701 3.40248 13.9618 3.35331C13.9272 3.34925 13.8934 3.34625 13.862 3.34476ZM15.0755 4.39539C15.071 4.5395 14.9951 4.58397 14.8916 4.66094C14.6404 4.83284 14.4025 5.00794 14.1519 5.1745C14.0807 5.21983 13.9885 5.27798 13.8872 5.22923C13.9687 5.3558 14.1296 5.56961 14.2122 5.69469C14.2207 5.56555 14.29 5.50696 14.3683 5.45565C14.6391 5.27477 14.8938 5.07957 15.1655 4.9004C15.244 4.84738 15.2889 4.82429 15.3932 4.85935C15.3124 4.73577 15.157 4.51919 15.0755 4.39539ZM15.5566 5.07316C15.4815 5.18647 15.315 5.11763 15.1967 5.16317C15.3406 5.2442 15.4995 5.50418 15.5594 5.65684C15.2376 5.80757 14.9716 5.94291 14.6494 6.09557C14.5883 6.12657 14.4916 6.1069 14.429 6.08295C14.4955 6.21787 14.6066 6.45519 14.6734 6.58924C14.7088 6.48534 14.8128 6.39703 14.9096 6.35427C15.1976 6.22342 15.4347 6.09685 15.7255 5.97327C15.7992 6.11845 15.923 6.39169 15.8816 6.55546C15.9927 6.48833 16.0473 6.34209 16.174 6.35577C16.0201 6.02223 15.712 5.40626 15.5566 5.07316ZM16.2555 6.51591C16.2249 6.65574 16.0979 6.73634 16.0193 6.84068C15.8617 7.02476 15.6722 7.23216 15.4877 7.41859C15.4437 7.45986 15.3344 7.4729 15.2682 7.48787C15.1309 7.50775 15.067 7.52378 14.9618 7.4357C14.9947 7.58365 15.0486 7.84748 15.0783 7.99544C15.1369 7.90671 15.1993 7.85454 15.3146 7.82525C15.4172 7.80686 15.508 7.76731 15.5818 7.79959C15.9186 7.98282 16.5503 8.24388 16.6295 8.32577L16.5142 7.77308C16.4768 7.82717 16.4328 7.85326 16.3879 7.83615C16.1858 7.7579 15.9459 7.64629 15.7744 7.58066C15.9 7.43484 16.0466 7.29394 16.1794 7.15583C16.2371 7.08548 16.3162 7.05769 16.3864 7.12611L16.2555 6.51591Z" fill="#0053A0"/>
<path fill-rule="evenodd" clip-rule="evenodd" d="M15.4567 9.77707C15.3928 9.77878 15.3203 9.80165 15.2429 9.85297C15.1328 9.94982 15.0922 10.1014 15.0559 10.237C15.0062 10.4659 14.8831 10.9365 14.838 11.1662C14.9141 11.105 14.9797 11.0982 15.0657 11.117C15.4018 11.1895 15.7366 11.2656 16.0714 11.3381C16.1525 11.3537 16.2123 11.4172 16.2583 11.4884C16.3077 11.1698 16.5057 10.5222 16.5003 10.1972C16.4939 9.93079 16.247 9.76082 16.0107 9.81619C15.8766 9.85382 15.8014 10.0086 15.7717 10.1172C15.7712 9.95559 15.6485 9.77194 15.4567 9.77707ZM15.458 10.1634C15.5566 10.1641 15.6477 10.2549 15.6214 10.3691C15.5953 10.488 15.548 10.7381 15.519 10.8557C15.4046 10.8326 15.2857 10.807 15.1728 10.7809C15.2053 10.6582 15.2359 10.4839 15.2682 10.3593C15.3007 10.2179 15.3817 10.1634 15.458 10.1634ZM16.0742 10.1846C16.1768 10.1882 16.2709 10.2913 16.2482 10.4168C16.2164 10.5677 16.1582 10.8461 16.1304 10.9947C16.0058 10.9695 15.8766 10.9393 15.7507 10.9145C15.7826 10.7633 15.8315 10.5455 15.8717 10.3943C15.9089 10.2395 15.994 10.182 16.0742 10.1846ZM14.8143 11.2322C14.7198 11.402 14.6334 11.5638 14.5344 11.7357C14.6094 11.6998 14.6836 11.6958 14.7454 11.7287C14.965 11.8448 15.1521 11.9536 15.3695 12.0746C15.4535 12.1231 15.5446 12.2136 15.554 12.3333C15.5504 12.4937 15.4396 12.6876 15.2921 12.7528C15.1854 12.8028 15.064 12.7515 14.9829 12.7047C14.7837 12.585 14.6265 12.4999 14.4273 12.3784C14.3584 12.3389 14.2971 12.3096 14.2909 12.1817C14.1955 12.3434 14.1096 12.5202 14.0095 12.6867C14.1423 12.6273 14.2338 12.6669 14.3291 12.7259C14.5064 12.8278 14.6539 12.9134 14.8294 13.0156C14.9635 13.0917 15.0978 13.1419 15.2808 13.1011C15.4388 13.0645 15.5728 12.9117 15.6693 12.7541C15.7712 12.589 15.8608 12.3968 15.8506 12.2142C15.8416 12.0257 15.7268 11.8969 15.5989 11.8118C15.3902 11.6855 15.2245 11.5985 15.0139 11.4757C14.9329 11.427 14.8168 11.3537 14.8143 11.2322ZM14.9293 13.1757C14.9248 13.3346 14.8358 13.5214 14.7227 13.651C14.6657 13.7275 14.482 13.9358 14.4078 14.0155C14.1564 13.8022 13.9276 13.6087 13.6753 13.3968C13.6086 13.3418 13.556 13.2653 13.5528 13.1785C13.4485 13.286 13.3076 13.4457 13.2109 13.561C13.2973 13.5488 13.3783 13.5907 13.4431 13.6456C13.6905 13.8567 13.9304 14.073 14.1814 14.2809C14.2566 14.3493 14.2953 14.4156 14.2994 14.5244C14.5271 14.2674 14.9496 13.7818 15.1715 13.5206C15.1414 13.5075 15.1012 13.5028 15.0841 13.4669C15.0184 13.3472 14.9988 13.2706 14.9293 13.1757ZM13.187 13.5907C13.1164 13.6833 12.9751 13.7369 12.8733 13.7818C12.6533 13.8868 12.3446 14.1378 12.2802 14.4318C12.2289 14.6852 12.2847 14.8898 12.4248 15.0743C12.5633 15.2616 12.738 15.3704 12.9792 15.3766C13.249 15.374 13.5366 15.2006 13.7495 14.9843C13.8196 14.9142 13.9056 14.8177 14.0082 14.8098C13.9227 14.708 13.8513 14.5932 13.7581 14.4962C13.6978 14.682 13.4074 14.9871 13.2109 15.0405C13.0375 15.0796 12.9214 15.0328 12.7947 14.9236C12.6538 14.7777 12.5661 14.5981 12.6245 14.388C12.7113 14.1171 13.0709 13.9187 13.2969 13.9578C13.2558 13.8368 13.2248 13.7072 13.187 13.5907Z" fill="#0053A0"/>
<path fill-rule="evenodd" clip-rule="evenodd" d="M9.04024 3.66975C9.01159 3.75228 8.99214 3.86111 8.97289 3.95668C8.96883 3.97763 8.95836 3.99196 8.94574 4.00714C8.30582 4.65112 7.51517 4.46361 7.22055 5.40799C7.1872 5.48774 7.22953 5.57219 7.37214 5.65108C7.38646 5.65963 7.39908 5.656 7.39908 5.64103C7.36316 4.61563 8.74861 4.6849 9.05157 3.97336C9.05478 3.96609 9.06504 3.96801 9.06825 3.97336C9.32289 4.44843 9.74366 4.51065 10.1283 4.733C10.4163 4.89913 10.6239 5.04986 10.6827 5.52173C10.6846 5.54397 10.6908 5.5399 10.7021 5.52857C10.7458 5.48047 10.8516 5.45566 10.8484 5.38361C10.7552 4.68746 9.98847 4.53716 9.37335 4.25045C9.34769 4.23078 9.32161 4.21111 9.29595 4.19144C9.16724 4.03921 9.06911 3.86752 9.04024 3.66975ZM9.02913 4.54037C9.02228 4.54079 9.01651 4.54229 9.01052 4.54571C9.0039 4.54892 8.99748 4.55576 8.99385 4.56282C8.99043 4.56923 8.99171 4.58954 8.99385 4.60344C8.9962 4.61242 9.00432 4.61734 9.00924 4.62311C9.0195 4.63572 9.02848 4.64299 9.04174 4.65283C9.0582 4.66373 9.07851 4.65026 9.08215 4.63722C9.08707 4.61456 9.08707 4.58954 9.08215 4.56966C9.08087 4.56239 9.07531 4.5579 9.07082 4.55127C9.06462 4.54443 9.05778 4.54079 9.04709 4.54037C9.0426 4.53994 9.03533 4.53951 9.02913 4.54037ZM9.23823 4.73429C9.23609 4.73472 9.23523 4.73514 9.23288 4.73707C9.22882 4.74027 9.22561 4.74562 9.22561 4.75096C9.22518 4.77897 9.21257 4.81981 9.23823 4.83435C9.25084 4.84012 9.26666 4.84226 9.2765 4.83114C9.28142 4.82302 9.29104 4.82024 9.2904 4.80591C9.2904 4.79907 9.28099 4.79693 9.27799 4.78924C9.27393 4.7779 9.27607 4.75781 9.27201 4.74968C9.26837 4.7437 9.26474 4.73792 9.25811 4.73707C9.25127 4.73578 9.24507 4.73258 9.23823 4.73429ZM8.85316 4.73835C8.83456 4.74476 8.81489 4.75823 8.80805 4.78197C8.79993 4.79608 8.80035 4.8072 8.80805 4.81575C8.81789 4.83029 8.83007 4.84739 8.84718 4.8553C8.86172 4.86214 8.88053 4.86214 8.88695 4.83114C8.894 4.80548 8.89443 4.76935 8.88288 4.75952C8.86792 4.74883 8.87155 4.73386 8.85316 4.73835ZM9.05692 5.07723C8.97503 5.32375 8.95387 5.44797 8.8955 5.64424C9.0024 5.6451 9.06141 5.64552 9.13838 5.64702C9.07573 5.42338 9.07274 5.33465 9.05692 5.07723Z" fill="#0053A0"/>
<path fill-rule="evenodd" clip-rule="evenodd" d="M5.27709 6.29526C5.27345 6.29526 5.26896 6.29719 5.26447 6.30082C4.69425 6.70299 4.53946 7.41581 3.80615 7.29801C4.32666 7.54132 4.31411 8.13954 4.3672 8.69436C4.41203 9.16174 4.76941 9.7914 5.73292 9.66033C5.74361 9.65948 5.75088 9.65093 5.74404 9.64066C5.68246 9.55279 5.47592 9.58165 5.42461 9.5731C4.66186 9.43007 4.5327 8.72857 4.37427 7.93472C4.33741 7.7053 4.18856 7.56034 4.0972 7.38802C4.0906 7.37049 4.08465 7.36493 4.10706 7.36086C4.59302 7.26786 4.95937 6.84624 5.34892 6.39789C5.35705 6.39297 5.35855 6.38185 5.34892 6.37373C5.3269 6.35171 5.30681 6.32733 5.28692 6.30082C5.28329 6.29719 5.28115 6.29483 5.27709 6.29526ZM5.20418 7.21783C5.19734 7.21826 5.19007 7.21975 5.18429 7.22317C5.17745 7.22638 5.17125 7.23322 5.16719 7.24028C5.16398 7.24669 5.16548 7.267 5.16719 7.2809C5.16997 7.28988 5.17938 7.2948 5.18429 7.30057C5.19456 7.31319 5.20375 7.32046 5.21679 7.33029C5.23326 7.34119 5.25228 7.32772 5.25592 7.31468C5.26084 7.29202 5.26084 7.267 5.25592 7.24712C5.25442 7.23985 5.24908 7.23536 5.24459 7.22873C5.23839 7.22189 5.23155 7.21826 5.22086 7.21783C5.21615 7.2174 5.21038 7.21697 5.20418 7.21783ZM5.42333 7.4171C5.42098 7.41774 5.41884 7.41859 5.41649 7.4203C5.41242 7.42308 5.40922 7.42843 5.40922 7.4342C5.40793 7.46178 5.39361 7.50219 5.41927 7.51716C5.43145 7.52378 5.44706 7.52528 5.4569 7.51438C5.46245 7.50625 5.47229 7.50454 5.47229 7.49064C5.47272 7.48337 5.46417 7.48145 5.4616 7.47354C5.45796 7.46221 5.45968 7.4419 5.45561 7.4342C5.45241 7.428 5.44856 7.42116 5.44172 7.4203C5.43487 7.41859 5.42996 7.41581 5.42333 7.4171ZM5.03527 7.44681C5.01689 7.45323 4.997 7.46798 4.99037 7.49193C4.98225 7.50582 4.98268 7.51566 4.99037 7.52421C4.99978 7.53875 5.01368 7.55585 5.03078 7.56355C5.04532 7.57061 5.06414 7.5721 5.07055 7.54089C5.07761 7.51523 5.07675 7.47803 5.06456 7.46798C5.04981 7.45729 5.05387 7.44232 5.03527 7.44681ZM5.26041 7.78163C5.23026 8.0305 5.1394 8.31486 5.05067 8.50173C5.15415 8.48783 5.23689 8.55069 5.24331 8.63086C5.26939 8.54 5.33909 8.47008 5.42183 8.49446C5.36753 8.26868 5.30039 8.02601 5.26041 7.78163Z" fill="#0053A0"/>
<path fill-rule="evenodd" clip-rule="evenodd" d="M6.07437 10.2058C6.07031 10.2068 6.06582 10.2081 6.06047 10.2103C5.17746 10.5515 5.00107 11.3443 5.49474 12.0423C5.86569 12.6656 6.0299 12.9224 5.85351 13.4233C6.54367 12.6017 7.76642 13.9309 8.46791 12.9059C8.47732 12.8933 8.46257 12.8847 8.44803 12.8706C8.41382 12.8469 8.3779 12.8311 8.34283 12.8172C8.31675 12.8073 8.30243 12.8131 8.2866 12.8356C7.99946 13.1381 7.06835 13.071 6.36429 13.0731C6.34269 13.0731 6.27834 13.0844 6.25717 13.0958C6.18961 13.1304 6.12119 13.161 6.04914 13.1546C6.0299 13.1546 6.00061 13.1443 6.00552 13.1043C6.04059 12.5922 5.73592 12.2668 5.54285 11.8444C5.48256 11.7003 5.03528 10.8921 6.11093 10.4012C6.11585 10.3918 6.12611 10.3862 6.12483 10.3719C6.12162 10.3219 6.11136 10.2725 6.09682 10.2212C6.09425 10.2085 6.08698 10.2041 6.07437 10.2058ZM6.87314 11.1818C6.8663 11.1828 6.85924 11.1841 6.85326 11.1873C6.84663 11.191 6.84022 11.1976 6.8368 11.2044C6.83359 11.2111 6.83444 11.2314 6.8368 11.2453C6.83893 11.2543 6.84834 11.2588 6.85326 11.2647C6.86416 11.2774 6.87271 11.2844 6.88576 11.2945C6.90243 11.3051 6.92317 11.2917 6.92659 11.2786C6.93108 11.2562 6.93172 11.231 6.92659 11.2111C6.92488 11.204 6.91804 11.2 6.91419 11.1931C6.90735 11.1858 6.90201 11.1828 6.89153 11.1818C6.88661 11.1814 6.87998 11.1809 6.87314 11.1818ZM7.0955 11.3704C7.09315 11.3708 7.09058 11.3712 7.08823 11.3731C7.08459 11.3763 7.08096 11.3817 7.08139 11.387C7.0801 11.415 7.06578 11.455 7.09101 11.4704C7.10362 11.4766 7.11752 11.4779 7.12778 11.4672C7.1327 11.4591 7.14446 11.4578 7.14446 11.4433C7.14489 11.4366 7.13505 11.4347 7.13185 11.4266C7.12821 11.4155 7.13142 11.3952 7.12778 11.387C7.12415 11.3808 7.12073 11.374 7.11346 11.3731C7.10704 11.3712 7.10213 11.3691 7.0955 11.3704ZM6.69889 11.3943C6.6805 11.4005 6.66083 11.4155 6.65399 11.4392C6.64544 11.4527 6.6463 11.4631 6.65399 11.4717C6.6634 11.486 6.67601 11.5027 6.69312 11.5108C6.70744 11.5181 6.72647 11.5194 6.73224 11.4884C6.73951 11.4627 6.74037 11.4253 6.72818 11.4155C6.71343 11.4046 6.71749 11.3898 6.69889 11.3943ZM6.90158 11.7146C6.87143 11.9635 6.78035 12.2478 6.69184 12.4347C6.79532 12.4208 6.87806 12.4824 6.88447 12.563C6.91056 12.4721 6.98026 12.4032 7.063 12.4278C7.00848 12.2021 6.94113 11.9594 6.90158 11.7146Z" fill="#0053A0"/>
<path fill-rule="evenodd" clip-rule="evenodd" d="M11.9172 10.2045C11.9127 10.2049 11.9076 10.2094 11.9059 10.2143C11.8864 10.2558 11.8667 10.2953 11.8468 10.3368C11.8293 10.3837 11.8285 10.4236 11.899 10.4461C13.1641 10.9633 12.5413 11.9419 12.2114 12.5161C12.1772 12.5751 12.0953 12.7492 12.0891 12.8257C12.0765 12.9072 12.0891 12.9782 12.0872 13.0633C12.0872 13.0831 12.0594 13.0885 12.044 13.0857C11.2341 12.9301 10.5334 13.6457 9.86958 12.8734C9.80843 12.8073 9.7351 12.8009 9.70816 12.8217C9.67887 12.8437 9.65727 12.8681 9.63653 12.9003C9.62264 12.9198 9.62306 12.9309 9.63931 12.9508C10.3295 13.9187 11.3498 12.7757 12.2253 13.2572C12.0202 12.765 12.4243 12.2876 12.6529 11.8583C13.1609 10.9951 12.5665 10.4647 11.9217 10.2045C11.9198 10.2036 11.9189 10.2045 11.9172 10.2045ZM11.2467 11.1634C11.2399 11.1643 11.2341 11.1657 11.2281 11.1692C11.2215 11.1724 11.2151 11.1792 11.2114 11.1858C11.2084 11.1927 11.2093 11.2143 11.2114 11.2282C11.2138 11.2372 11.2219 11.2408 11.2268 11.2466C11.2371 11.2588 11.2461 11.2665 11.2591 11.2759C11.2758 11.2872 11.2961 11.2737 11.2997 11.2607C11.3046 11.2382 11.3046 11.2126 11.2997 11.1931C11.2984 11.1854 11.2929 11.1814 11.2888 11.1747C11.2822 11.1679 11.2753 11.1643 11.2647 11.1634C11.2602 11.163 11.2529 11.1625 11.2467 11.1634ZM11.459 11.3577C11.4567 11.3577 11.4541 11.3588 11.4517 11.3605C11.4477 11.3633 11.4447 11.3691 11.4447 11.3744C11.4436 11.402 11.4293 11.4424 11.4545 11.4572C11.4671 11.464 11.4823 11.4653 11.4928 11.4546C11.4977 11.4465 11.508 11.4452 11.508 11.4307C11.508 11.424 11.5001 11.4217 11.4968 11.4135C11.4932 11.4024 11.4949 11.3825 11.4915 11.3744C11.4879 11.3682 11.4855 11.3614 11.4782 11.3605C11.472 11.3588 11.4652 11.3565 11.459 11.3577ZM11.0667 11.387C11.0481 11.3935 11.0297 11.4086 11.0231 11.4321C11.0149 11.446 11.0154 11.4559 11.0231 11.4644C11.0329 11.479 11.0451 11.4959 11.0622 11.5036C11.0765 11.5108 11.0953 11.5121 11.1017 11.4811C11.109 11.4555 11.1079 11.418 11.0958 11.4082C11.0814 11.3975 11.0851 11.3825 11.0667 11.387ZM11.2818 11.708C11.252 11.9568 11.1607 12.2412 11.072 12.4278C11.1759 12.4139 11.2587 12.477 11.2647 12.557C11.2907 12.4661 11.3604 12.3964 11.4432 12.4208C11.3889 12.1948 11.3217 11.9523 11.2818 11.708Z" fill="#0053A0"/>
<path fill-rule="evenodd" clip-rule="evenodd" d="M12.6852 6.28225C12.6826 6.28332 12.6803 6.28545 12.6782 6.28823C12.6685 6.29935 12.6606 6.36114 12.6583 6.40198C12.6578 6.41053 12.6578 6.41737 12.6668 6.42314C12.8481 6.53347 13.3914 7.14944 13.8648 7.25698C13.8855 7.26147 13.8881 7.279 13.8778 7.28948C13.3149 7.95099 13.9862 8.9841 12.8766 9.37792C12.6705 9.43458 12.4631 9.40764 12.4248 9.54491C12.4237 9.54982 12.4306 9.55602 12.4346 9.55602C13.1019 9.59836 13.5182 9.37343 13.6428 8.89686C13.8034 8.36577 13.5011 7.61126 14.0704 7.19947C14.0848 7.18856 14.0771 7.16975 14.0645 7.17103C13.4889 7.22961 13.1209 6.61899 12.6933 6.28374C12.6912 6.28225 12.6876 6.28182 12.6852 6.28225ZM12.868 7.17103C12.8612 7.17253 12.8541 7.17467 12.8481 7.1783C12.8415 7.18151 12.8351 7.18814 12.8315 7.19541C12.8285 7.20161 12.8293 7.22192 12.8315 7.23582C12.8338 7.2448 12.8419 7.24993 12.8468 7.2557C12.8571 7.26831 12.8661 7.27409 12.8791 7.28349C12.8958 7.29483 12.9161 7.28264 12.9198 7.2696C12.9247 7.24715 12.9247 7.22192 12.9198 7.20203C12.9185 7.19498 12.9129 7.18899 12.9088 7.18236C12.9022 7.17552 12.8954 7.17189 12.8847 7.17103C12.8802 7.17103 12.8742 7.17018 12.868 7.17103ZM13.0632 7.38804C13.0611 7.38847 13.0587 7.3889 13.0566 7.39061C13.0525 7.39382 13.0506 7.39916 13.0506 7.40472C13.0493 7.43252 13.0354 7.4725 13.0606 7.48789C13.0726 7.49409 13.0872 7.49559 13.097 7.48468C13.1023 7.47656 13.1128 7.47528 13.1128 7.46095C13.1128 7.45411 13.1043 7.4524 13.1015 7.44427C13.0979 7.43294 13.0998 7.41263 13.0957 7.40472C13.0925 7.39831 13.0897 7.39168 13.0831 7.39061C13.0763 7.3889 13.0701 7.38655 13.0632 7.38804ZM12.6615 7.39061C12.6429 7.39702 12.6245 7.41178 12.6179 7.43572C12.6097 7.44962 12.6102 7.45946 12.6179 7.46801C12.6273 7.48255 12.6399 7.49965 12.657 7.50713C12.6713 7.5144 12.6901 7.51569 12.6965 7.48468C12.7032 7.45903 12.7027 7.42311 12.6908 7.41327C12.6758 7.40237 12.6799 7.38612 12.6615 7.39061ZM12.8778 7.70832C12.8481 7.95719 12.7568 8.24155 12.6681 8.42842C12.7716 8.41452 12.855 8.47738 12.8607 8.55798C12.8868 8.46712 12.9565 8.39677 13.0395 8.42115C12.985 8.1958 12.9178 7.9527 12.8778 7.70832Z" fill="#0053A0"/>
<path fill-rule="evenodd" clip-rule="evenodd" d="M12.3027 4.7411C12.3006 4.74152 12.2982 4.74152 12.2957 4.74281C11.7845 4.88734 11.0941 5.47723 10.5254 5.9942C10.5087 6.01323 10.4858 6.0173 10.4672 6.01088C10.0892 5.88666 9.64961 5.87063 9.28337 5.86058C8.76083 5.81247 8.13267 5.8764 7.57057 6.05856C7.54641 6.06711 7.52824 6.04509 7.51028 6.0235C7.06535 5.52854 6.43848 5.12316 5.762 4.84094C5.74319 4.83196 5.72736 4.82384 5.70577 4.84372C5.35855 5.164 5.43488 6.11265 5.73292 6.62707C5.76799 6.70168 5.77568 6.83253 5.77654 6.87722C5.79771 7.15388 5.85158 7.39292 5.92406 7.65076C5.94202 7.8109 6.00339 7.97382 6.09554 8.11194C6.1135 8.13396 6.1058 8.15385 6.09276 8.16817C5.97495 8.28619 5.86741 8.3978 5.7496 8.5156C5.74105 8.52373 5.7248 8.5295 5.70898 8.53228C5.61127 8.54361 5.58069 8.57547 5.53451 8.68836C5.52767 8.70461 5.52853 8.71594 5.53708 8.72941C5.55375 8.76041 5.66707 8.95668 5.76072 9.06102C5.85116 9.1506 5.81738 9.2357 5.74105 9.31716C5.88537 9.42513 6.14364 9.63167 6.15904 9.66309C6.17529 9.74626 6.32196 9.77427 6.23451 9.89358C6.2576 9.89892 6.2715 9.90747 6.28946 9.9218C6.3025 9.93591 6.30528 9.94938 6.30656 9.96413C6.31832 10.0937 6.34269 10.2113 6.41453 10.3353C6.70702 10.8313 7.03478 10.7548 7.42433 11.1777C7.65738 11.431 7.88743 11.4411 8.04586 11.8879C8.03132 12.0575 8.02234 12.1614 8.09226 12.3081C8.175 12.4872 8.37876 12.4941 8.64067 12.6132C8.67573 12.6269 8.69519 12.6375 8.72084 12.6641C8.78926 12.7308 8.86794 12.7735 8.9571 12.8159C9.02915 12.8464 9.11446 12.8464 9.18074 12.8131C9.30667 12.741 9.33318 12.7932 9.56601 12.6258C9.78559 12.561 10.1441 12.2905 10.1059 11.8302C10.1072 11.8167 10.1104 11.8078 10.1144 11.796C10.1213 11.7748 10.1409 11.7537 10.1595 11.7332C10.2481 11.6273 10.3494 11.5337 10.4114 11.4054C10.424 11.3744 10.4349 11.3442 10.4631 11.3209C11.3397 10.6053 11.0297 10.9198 11.3466 10.677C11.9963 10.1829 11.5698 9.60601 12.3307 9.28338C12.2277 9.06508 12.2627 9.0452 12.598 8.58039C12.4207 8.48674 12.2974 8.3792 12.1744 8.29325C11.7889 7.99093 12.1389 7.73436 12.1706 7.58598C12.1926 7.50174 12.2257 7.39548 12.2339 7.28794C12.2749 7.04014 12.2518 6.74808 12.3784 6.61852C12.4716 6.5285 12.4986 6.03568 12.5133 5.9957C12.6155 5.67393 12.5781 5.63074 12.5967 5.42869C12.5997 5.40175 12.6093 5.38016 12.5967 5.35044C12.5255 5.15417 12.4383 4.96431 12.3378 4.77616C12.3288 4.75991 12.3222 4.7443 12.3096 4.7411C12.3076 4.74067 12.3051 4.7411 12.3027 4.7411ZM11.9991 5.49796C11.9581 5.90163 11.811 6.16888 11.8569 6.50734C11.6855 6.71793 11.743 7.11069 11.5854 7.34567C11.5751 7.35913 11.5612 7.36683 11.5446 7.36533C11.3352 7.3307 11.1886 7.06708 11.0105 6.91806C10.9923 6.90373 10.9833 6.89026 10.9893 6.87594C11.0618 6.71473 11.2281 6.55309 11.099 6.38932C11.1054 5.92001 11.666 5.84454 11.9991 5.49796ZM5.97046 5.57536C6.29929 5.75945 6.50903 6.06861 6.67067 6.0731C6.6959 6.11223 6.73182 6.15263 6.76197 6.18428C7.00399 6.45966 6.812 6.56228 7.02473 6.91549C7.04782 6.96488 7.05808 7.01299 7.02473 7.04313C6.88255 7.16692 6.75619 7.29243 6.63817 7.42841C6.4821 7.61784 6.40598 7.54814 6.3598 7.42841C6.33093 7.33968 6.30036 7.2394 6.34034 7.13721C6.36514 7.08097 6.35018 7.03479 6.30784 6.98113C6.25119 6.90159 6.205 6.81735 6.16032 6.73354C6.1445 6.70211 6.13423 6.67517 6.12803 6.63562C6.0718 6.28733 6.08207 5.7665 5.97046 5.57536ZM10.0554 9.02318C10.0794 9.02061 10.1005 9.03707 10.1033 9.06102C10.1059 9.08539 10.0879 9.10784 10.064 9.11041C10.0398 9.11276 10.0186 9.09523 10.0159 9.07086C10.0137 9.04712 10.0317 9.02596 10.0554 9.02318ZM7.80961 9.02724C7.83398 9.0251 7.85494 9.04114 7.85729 9.06551C7.86007 9.08946 7.84189 9.11041 7.81816 9.11319C7.79421 9.11597 7.77262 9.09929 7.77048 9.07535C7.7677 9.05119 7.78566 9.03002 7.80961 9.02724ZM11.428 10.0048C11.4635 10.0052 11.4744 10.0383 11.4704 10.0721C11.4325 10.5491 11.2102 10.4178 10.7022 10.8696C10.5694 10.9756 10.613 11.0787 10.4338 11.2296C10.2838 11.3699 10.1437 11.5166 10.0159 11.6981C9.99512 11.7291 9.97994 11.6962 9.97802 11.6823C9.97182 11.6444 9.94937 11.6017 9.91772 11.567C9.8337 11.4725 9.96775 11.4843 9.81659 11.2579C9.75395 11.1661 9.68147 11.2844 9.63785 11.1356C9.61091 11.0396 9.63657 11.0868 9.60279 10.864L9.69152 10.7907C9.73321 10.9096 9.79179 11.009 9.85572 11.0917C9.86513 11.1031 9.84759 11.2033 9.88672 11.2916C9.89485 11.1522 10.0195 11.0721 9.84182 10.8219C9.81873 10.7894 9.80676 10.7576 9.79821 10.7193C9.79714 10.7152 9.79628 10.712 9.79543 10.708C10.132 10.4892 10.5087 10.3107 10.8642 10.1634C10.8461 10.1837 10.8285 10.204 10.8106 10.2256C10.8024 10.2354 10.8183 10.2391 10.8232 10.2369C10.8448 10.231 10.855 10.2337 10.8721 10.2369C10.8835 10.2436 10.8822 10.2553 10.8822 10.266C10.8848 10.3075 10.8516 10.3099 10.8615 10.356C10.92 10.281 10.9758 10.2081 11.0355 10.1397C11.0496 10.1221 11.068 10.1014 11.0958 10.1046L11.1608 10.1132C11.1828 10.114 11.204 10.1099 11.2281 10.1031C11.2854 10.0807 11.3282 10.0529 11.3829 10.0159C11.4009 10.0073 11.4159 10.0048 11.428 10.0048ZM6.6495 10.0807C6.65164 10.0807 6.65528 10.0822 6.65806 10.0834C6.82675 10.1681 7.0568 10.2211 7.17418 10.2705C7.23576 10.2994 7.30204 10.3421 7.34971 10.3494C7.36938 10.3507 7.36938 10.34 7.35955 10.3282C7.34694 10.3084 7.33432 10.2895 7.32171 10.272C7.61163 10.4065 7.88016 10.5626 8.1641 10.7503C8.16324 10.7526 8.16196 10.7548 8.16153 10.7571C8.15341 10.7813 8.14528 10.8033 8.13716 10.8232C8.13267 10.8345 8.12775 10.8471 8.12326 10.857C8.11963 10.8655 8.11556 10.8745 8.11193 10.8822C8.1053 10.8965 8.09846 10.9124 8.09226 10.9245C8.08413 10.9401 8.07515 10.9585 8.06831 10.9722C8.06617 10.9776 8.06382 10.9825 8.06147 10.9878C8.05698 10.9979 8.05206 11.0077 8.04907 11.0171C8.04672 11.024 8.04501 11.0302 8.04308 11.037C8.04223 11.04 8.04095 11.0432 8.04052 11.0468C8.03859 11.0558 8.03817 11.0648 8.03731 11.0746C8.03688 11.0838 8.03688 11.0932 8.03731 11.1031C8.03817 11.1135 8.03859 11.1238 8.04052 11.1356C8.04394 11.1638 8.05206 11.1747 8.06147 11.1792C8.06425 11.1805 8.06831 11.1809 8.07152 11.1817C8.07815 11.1832 8.09119 11.1854 8.09525 11.1747C8.09846 11.1646 8.10338 11.1548 8.10787 11.1454C8.11236 11.1356 8.11642 11.1266 8.12198 11.117C8.13224 11.0982 8.14443 11.0793 8.15704 11.0607C8.15961 11.0567 8.16239 11.0522 8.16559 11.0481C8.18847 11.0158 8.2137 10.9848 8.237 10.9528C8.23936 10.9496 8.24064 10.947 8.24299 10.9442C8.2524 10.9303 8.26095 10.916 8.2695 10.9019C8.27271 10.897 8.27613 10.8916 8.27934 10.8867C8.28746 10.8726 8.29559 10.8587 8.30179 10.8444L8.48331 10.9793C8.45316 11.053 8.41446 11.1531 8.40313 11.2241C8.38196 11.3838 8.28383 11.3479 8.21049 11.2872C8.21498 11.4518 8.2276 11.5226 8.13587 11.6669C8.12369 11.6876 8.11236 11.6803 8.10487 11.6669C7.88294 11.239 7.66871 11.341 7.38799 10.8852C7.36276 10.8191 7.31508 10.7561 7.22314 10.7219C6.87721 10.5857 6.63005 10.492 6.63817 10.0946C6.6386 10.0875 6.64223 10.0807 6.6495 10.0807ZM9.70093 11.5095C9.71525 11.5104 9.72786 11.5226 9.73321 11.5377C9.80312 11.6953 9.88993 11.9724 9.86149 12.062C9.75887 12.4554 9.48178 12.5206 9.22435 12.4868C9.03129 12.4616 9.03043 12.4163 9.02723 12.2871C9.02765 12.273 9.04711 12.2677 9.06272 12.2632C9.29598 12.1898 9.43624 12.0628 9.44222 11.8204C9.4435 11.7875 9.44757 11.7528 9.43089 11.7231C9.4961 11.6814 9.55639 11.6382 9.6154 11.5841C9.61711 11.5824 9.61947 11.5805 9.62075 11.5784C9.63871 11.5499 9.65902 11.527 9.68703 11.5121C9.69195 11.5104 9.69644 11.5091 9.70093 11.5095ZM8.40441 11.5392C8.41211 11.5369 8.41895 11.5409 8.42708 11.5503C8.43285 11.5568 8.44097 11.5769 8.45936 11.5769C8.49079 11.6166 8.53462 11.6508 8.57588 11.681C8.56327 11.6934 8.55557 11.7079 8.55066 11.7231C8.53761 11.7605 8.53997 11.824 8.55066 11.882C8.55515 11.9162 8.56691 11.9463 8.58444 11.976C8.66868 12.1071 8.72854 12.1659 8.82347 12.2307C8.86302 12.2546 8.90664 12.2754 8.9571 12.2704C8.971 12.2685 8.97912 12.2779 8.97677 12.2897C8.96159 12.4828 8.87371 12.4958 8.652 12.4684C8.16068 12.3703 8.11727 12.0502 8.38325 11.567C8.38923 11.5499 8.39736 11.5414 8.40441 11.5392ZM9.04177 12.5837C9.10954 12.5822 9.18159 12.5845 9.25236 12.5935C9.26305 12.5956 9.26391 12.6046 9.26092 12.6119C9.25087 12.6384 9.22115 12.6722 9.20597 12.6852C9.19656 12.6925 9.18202 12.6953 9.16941 12.6991C9.11638 12.7132 9.03364 12.7194 9.0191 12.7173C9.00606 12.7145 8.99302 12.7096 8.98083 12.7019C8.93465 12.6758 8.89146 12.6457 8.84592 12.6179C8.83608 12.6102 8.83566 12.5984 8.8472 12.5967C8.90856 12.5907 8.97335 12.5854 9.04177 12.5837Z" fill="#0053A0"/>
<path fill-rule="evenodd" clip-rule="evenodd" d="M12.248 5.0984C12.2452 5.0984 12.2424 5.09883 12.2394 5.09969C11.681 5.3028 10.9882 5.70689 10.628 6.24311C10.4826 6.36028 10.3336 6.47445 10.1792 6.57473C10.5001 6.14819 9.85978 6.11996 9.08795 6.03615C8.5575 5.99082 7.92442 6.15674 7.71831 6.26984C7.69971 6.28053 7.68817 6.3017 7.70292 6.32051C7.76043 6.4024 7.77818 6.49882 7.81217 6.58926C7.81688 6.5991 7.80726 6.59995 7.79977 6.59333C7.12821 5.99211 6.12483 5.18115 5.79044 5.10118C5.77461 5.0984 5.76029 5.10375 5.75216 5.11829C5.72843 5.1681 5.72287 5.18264 5.70449 5.23203C5.69144 5.27565 5.6675 5.3028 5.65552 5.31477C5.46417 5.50249 5.79941 5.85442 5.84945 6.49797C5.8828 6.76972 5.94844 6.89158 6.01087 7.07845C6.02049 7.10368 6.02669 7.12527 6.03075 7.15029C6.11756 7.45004 6.17421 7.75557 6.28946 8.0333C6.42672 8.4793 5.88857 8.40596 5.86655 8.77584C5.85394 9.02685 6.14856 9.16454 6.09831 9.3482C6.09511 9.35975 6.07351 9.37236 6.0857 9.38733C6.31255 9.62273 6.40021 9.56778 6.49193 9.76298C6.70488 10.1361 6.93622 9.72792 7.32171 10.2721C7.61162 10.4065 7.88016 10.5626 8.1641 10.7503C8.18441 10.6868 8.20322 10.6082 8.22033 10.5055C8.25411 10.3026 8.24748 10.0978 8.1192 9.81472C8.09568 9.77346 8.10979 9.70354 8.15148 9.6704C8.17265 9.65458 8.18163 9.64838 8.18398 9.68109C8.2199 10.0574 8.52821 10.3112 8.33835 10.6672C8.33151 10.6802 8.32338 10.6909 8.32573 10.7121C8.32979 10.7602 8.31996 10.8034 8.30179 10.8444L8.48331 10.9793C8.49528 10.95 8.50618 10.9254 8.51303 10.9079C8.59384 10.4897 8.65734 9.81472 8.71806 9.7307C8.72362 9.72257 8.73025 9.70996 8.71806 9.70098C8.64751 9.62807 8.56819 9.50706 8.60432 9.4705C8.64302 9.44121 8.86837 9.53229 8.86709 9.69563C8.85768 9.84188 8.71507 11.1959 8.53676 11.387C8.52821 11.3969 8.53141 11.4037 8.53676 11.411C8.61458 11.5207 8.59791 11.5478 8.57054 11.5617C8.54574 11.5711 8.494 11.5671 8.47069 11.5756C8.46663 11.5769 8.46257 11.5769 8.45936 11.5769C8.49079 11.6167 8.53462 11.6509 8.57588 11.681C8.60068 11.6566 8.64259 11.6387 8.70695 11.6291C8.95838 11.5855 9.19827 11.5927 9.38193 11.6795C9.40652 11.6921 9.42191 11.7071 9.43089 11.7231C9.4961 11.6815 9.55639 11.6383 9.6154 11.5842C9.5983 11.5968 9.56195 11.5846 9.55639 11.5557C9.45569 11.0069 9.34815 10.9222 9.28465 10.5083C9.25899 10.3678 9.2468 10.2207 9.27332 10.086C9.28187 10.0424 9.28465 10.0029 9.27332 9.95562C9.23697 9.82028 9.23911 9.67896 9.26947 9.5449C9.28999 9.49979 9.3428 9.43949 9.38043 9.38861C9.41165 9.34777 9.43367 9.30009 9.45077 9.24835C9.46831 9.19469 9.64234 8.9347 9.79094 8.89365C9.80355 8.89044 9.80526 8.88296 9.80676 8.8712C9.80804 8.85816 9.78367 8.85773 9.78559 8.83785C9.79094 8.73437 10.4415 8.79017 10.7841 8.82203C10.9145 8.81048 11.0447 8.79017 11.1678 8.76729C11.1894 8.76323 11.1909 8.77071 11.1779 8.7844C11.0757 8.89686 10.9286 8.95843 10.7954 8.97554C10.7702 8.97917 10.7633 8.99307 10.7584 9.0121C10.6823 9.39395 10.1298 9.57847 9.8895 9.53357C9.87411 9.53079 9.87368 9.54169 9.87411 9.54939C9.89164 9.74502 9.80761 9.76491 9.73471 10.3368C9.73022 10.3687 9.7315 10.3971 9.73642 10.4294C9.74775 10.5222 9.77469 10.6103 9.79543 10.708C10.132 10.4893 10.5087 10.3107 10.8642 10.1634C10.9361 10.0822 11.0073 10.0086 11.0819 9.9259C11.1026 9.89853 11.1426 9.88186 11.1805 9.86839C11.4635 9.74951 11.7502 9.56457 11.9653 9.3311C11.9715 9.3234 11.9846 9.31078 11.9805 9.29603C11.9149 8.98901 12.1173 8.89814 12.2448 8.67044C12.264 8.64072 12.2433 8.63302 12.2223 8.62233C12.0823 8.53403 11.9549 8.41216 11.8569 8.29778C11.8338 8.26357 11.824 8.22038 11.8159 8.18211C11.7145 7.70532 11.9243 7.67047 11.9621 7.39467C11.9593 7.2574 11.9963 7.09598 12.0395 6.95337C12.0904 6.78725 12.1133 6.65234 12.1719 6.55954C12.2007 5.72891 12.4586 5.91642 12.3882 5.47363C12.3698 5.38512 12.323 5.22433 12.2672 5.1138C12.2627 5.10332 12.2559 5.09883 12.248 5.0984ZM12.0891 5.26047C12.0936 5.2594 12.0985 5.26004 12.103 5.26047C12.1327 5.26261 12.156 5.28463 12.1593 5.31221C12.1646 5.36609 12.1764 5.41569 12.187 5.46551C11.9951 5.92455 12.1067 6.55463 11.8554 6.94076C11.8428 7.279 11.8005 7.49473 11.5995 7.62964C11.5914 7.63584 11.5824 7.63498 11.5728 7.62964C11.2521 7.47292 10.9654 7.14623 10.6855 6.88987C11.121 6.60637 10.7265 6.30854 11.037 5.98313C11.3983 5.60149 11.7165 5.56364 12.0468 5.27971C12.0607 5.26795 12.075 5.26175 12.0891 5.26047ZM5.84538 5.2842C5.88494 5.28463 5.93048 5.30579 5.96319 5.33744C6.28497 5.47812 6.2561 5.60683 6.50732 5.73298C6.56077 5.76077 6.65228 5.8108 6.72284 5.82684C6.75534 5.93951 6.80836 5.9363 6.92659 6.13792C6.95503 6.18731 7.05894 6.26834 7.06835 6.33591C7.07562 6.37824 7.07476 6.41501 7.07155 6.45564C7.06835 6.57024 7.0211 6.6797 7.08417 6.73102C7.13591 6.75753 7.1017 6.78361 7.19535 6.83086C7.2426 6.85374 7.26697 6.87726 7.24174 6.92665C7.16691 7.05771 7.07519 7.16568 6.99159 7.28541C6.96978 7.31321 6.93793 7.33523 6.90564 7.35426C6.72412 7.46308 6.57339 7.61617 6.41047 7.76049C6.40021 7.76818 6.39529 7.76049 6.38802 7.75792C6.23194 7.66919 6.19046 7.5144 6.16972 7.30337C6.11585 6.74 6.00274 7.22726 5.81288 5.54975C5.78723 5.47406 5.75943 5.33915 5.78317 5.30815C5.79941 5.29147 5.82101 5.28377 5.84538 5.2842ZM9.51962 6.37674C9.37509 6.64464 9.30175 6.61941 9.21452 6.72417C9.2081 6.73144 9.20148 6.74042 9.19463 6.7494C9.18843 6.75838 9.18159 6.76779 9.17539 6.77869C9.16855 6.78938 9.16363 6.79901 9.16085 6.80841C9.16085 6.80884 9.16128 6.80927 9.16085 6.8097C9.15872 6.81868 9.15722 6.82873 9.15679 6.83664C9.16085 6.92408 9.14653 6.95957 9.16941 6.98844C9.1709 6.99058 9.17176 6.99293 9.17219 6.99549C9.17347 6.99827 9.17347 7.00105 9.1739 7.00362C9.17432 7.0096 9.17304 7.01538 9.1709 7.01944C9.15465 7.00918 9.12942 6.98972 9.10783 6.97048C9.09115 6.95551 9.07726 6.94161 9.07084 6.92943C9.07084 6.929 9.07127 6.92857 9.07084 6.92814C9.06913 6.92408 9.06828 6.92002 9.06828 6.91681C9.06828 6.90783 9.06742 6.90206 9.06678 6.89693C9.06464 6.87683 9.05887 6.87982 9.05417 6.8578C9.05203 6.84668 9.04925 6.82915 9.04839 6.79858C9.04796 6.78361 9.04839 6.7648 9.04839 6.74213C9.04668 6.72781 9.04796 6.72054 9.0516 6.71434C9.05288 6.71156 9.05481 6.70857 9.05694 6.70579C9.0593 6.70301 9.06143 6.70044 9.06421 6.69724C9.19464 6.56318 9.36782 6.47445 9.51962 6.37674ZM8.47924 6.40924C8.61587 6.50203 8.76938 6.62604 8.91925 6.75069C8.92246 6.75432 8.9246 6.75796 8.92781 6.76202C8.93636 6.77506 8.94277 6.79045 8.93914 6.8097C8.93016 6.86635 8.90301 6.92088 8.88141 6.97839C8.88056 6.98117 8.87885 6.98245 8.87692 6.98438C8.87521 6.98566 8.87371 6.98758 8.87158 6.98844C8.86709 6.99015 8.86174 6.98972 8.85896 6.98694C8.83202 6.95273 8.80273 6.9181 8.77836 6.88303C8.77023 6.87234 8.76168 6.86058 8.76168 6.84626C8.76275 6.83493 8.76318 6.82359 8.76318 6.81419C8.76318 6.80435 8.76275 6.7958 8.76168 6.78725C8.75954 6.77143 8.75462 6.75753 8.74778 6.74662C8.74736 6.7462 8.74778 6.74534 8.74778 6.74534C8.73346 6.72246 8.70866 6.70899 8.6691 6.69852C8.6366 6.68911 8.60838 6.67479 8.58444 6.65811C8.58401 6.65768 8.58358 6.65811 8.58315 6.65811C8.54809 6.63288 8.52286 6.5991 8.50576 6.55826C8.50576 6.55783 8.50447 6.55719 8.50447 6.55677C8.48737 6.51507 8.47967 6.46633 8.47924 6.40924ZM10.2891 7.72542C10.3259 7.72371 10.3646 7.7282 10.4028 7.73675C10.4407 7.74531 10.4785 7.75835 10.5108 7.77588C10.5209 7.78208 10.5234 7.79427 10.5123 7.79833C10.4582 7.81287 10.4033 7.83126 10.3479 7.85328C10.3201 7.86397 10.2932 7.87615 10.2647 7.88834C10.1253 7.94992 9.98315 8.02689 9.84182 8.09808C9.82686 8.10428 9.81702 8.10215 9.81061 8.09359C9.80847 8.09039 9.80676 8.08718 9.80526 8.08226C9.80205 8.06708 9.8027 8.05212 9.80398 8.03736C9.80483 8.02283 9.80761 8.00807 9.80804 7.99225C9.80932 7.97066 9.82279 7.96937 9.83049 7.95847C9.857 7.94821 9.87945 7.93923 9.89805 7.93067C9.95343 7.90502 9.97588 7.88706 9.99469 7.87038C10.0077 7.85905 10.0195 7.84879 10.0357 7.83617C10.0524 7.82399 10.0744 7.81009 10.1104 7.79298C10.132 7.78315 10.1535 7.77417 10.1747 7.76455C10.1963 7.75557 10.2175 7.74659 10.2382 7.73932C10.2545 7.73077 10.2733 7.72585 10.2891 7.72542ZM7.54535 7.75471C7.54812 7.75471 7.55176 7.75557 7.5539 7.75471C7.56288 7.75792 7.57015 7.76156 7.57656 7.76455C7.58276 7.76818 7.58725 7.77182 7.59174 7.77588C7.60842 7.79021 7.61526 7.80645 7.65802 7.82677C7.66828 7.83168 7.68175 7.83788 7.69715 7.84344C7.71275 7.84879 7.73136 7.85413 7.75338 7.86055C7.8064 7.87765 7.84424 7.88749 7.87974 7.90096C7.88059 7.90138 7.88059 7.90224 7.88166 7.90224C7.91672 7.91635 7.95051 7.93345 7.9922 7.96296C8.00674 7.97301 8.02192 7.98477 8.03902 7.99824C8.0557 8.01171 8.07473 8.02689 8.09525 8.04442C8.1038 8.05126 8.1115 8.05575 8.11342 8.06836C8.11385 8.07243 8.11342 8.07649 8.11193 8.08098V8.08226C8.11065 8.08675 8.10872 8.09081 8.10658 8.0953C8.10124 8.10471 8.09397 8.11284 8.0867 8.11925C8.08413 8.12096 8.08178 8.12246 8.07964 8.12331C8.07772 8.12374 8.07408 8.12374 8.06959 8.12331C8.05612 8.12053 8.04543 8.11882 8.03453 8.11476C8.0247 8.11113 8.01614 8.10664 8.00802 8.10215C7.99947 8.09766 7.9922 8.09359 7.98557 8.08825C7.97873 8.08269 7.97338 8.07692 7.96718 8.07114C7.95457 8.05939 7.94153 8.0472 7.92485 8.03458C7.91715 8.02838 7.9086 8.0224 7.89812 8.0162C7.88786 8.01021 7.8761 8.00401 7.86306 7.99824C7.84959 7.99225 7.8389 7.99097 7.828 7.99375C7.82436 7.99503 7.8203 7.99589 7.81688 7.99824C7.80234 8.00401 7.78887 7.99717 7.77454 7.99375C7.76364 7.9914 7.75145 7.98733 7.73948 7.98284C7.73884 7.98242 7.73841 7.98284 7.73798 7.98284C7.65032 7.94821 7.54128 7.86268 7.54086 7.76049C7.54086 7.75878 7.54192 7.75707 7.54235 7.756C7.54321 7.75557 7.54406 7.75471 7.54535 7.75471ZM7.73221 8.73351C7.75552 8.73351 7.77989 8.73479 7.80426 8.73608C7.82885 8.73843 7.85408 8.74057 7.87974 8.74463C7.89919 8.74784 7.91801 8.7519 7.93789 8.75596C7.94409 8.75767 7.95051 8.75874 7.95713 8.76045C7.96889 8.76323 7.98065 8.76665 7.9922 8.77029C8.00759 8.77435 8.02234 8.77884 8.03731 8.7844C8.05933 8.79188 8.0805 8.8 8.10209 8.80941C8.12091 8.81754 8.13994 8.82652 8.15832 8.83614C8.17671 8.84597 8.19531 8.8573 8.21327 8.86842C8.22845 8.87783 8.24342 8.88788 8.25817 8.89814C8.26501 8.90263 8.27164 8.90584 8.27805 8.91076C8.28874 8.91888 8.29965 8.92743 8.31034 8.93598C8.31269 8.9377 8.31483 8.93962 8.31718 8.94176C8.31889 8.94325 8.32124 8.94454 8.32295 8.94582C8.32616 8.9486 8.32979 8.95181 8.333 8.95437C8.3469 8.96656 8.3608 8.98046 8.37469 8.9935C8.39287 9.0106 8.40997 9.02813 8.42708 9.04716C8.42836 9.04845 8.42964 9.04973 8.43157 9.05123C8.44675 9.06876 8.46107 9.08714 8.47646 9.10596C8.48502 9.11772 8.494 9.12948 8.50298 9.14124C8.51025 9.1515 8.51687 9.16048 8.52414 9.17096C8.53996 9.19426 8.55429 9.21863 8.56926 9.24429C8.57503 9.25413 8.57952 9.26717 8.57909 9.27786C8.57866 9.28149 8.57781 9.28427 8.57588 9.28791C8.56199 9.31763 8.55343 9.34777 8.54659 9.38198C8.54574 9.3869 8.54125 9.39096 8.53676 9.39182C8.53505 9.39182 8.53227 9.39139 8.53099 9.39053C8.50661 9.37557 8.48416 9.36124 8.46214 9.34542C8.44097 9.33024 8.42109 9.31356 8.40185 9.29731C8.40142 9.29731 8.40035 9.29774 8.40035 9.29731C8.38068 9.28107 8.36272 9.26396 8.34412 9.24686C8.17906 9.09441 8.06297 8.92872 7.84061 8.88424C7.84018 8.88382 7.83975 8.88424 7.83933 8.88424C7.73991 8.86436 7.6206 8.86928 7.46538 8.90947C7.41364 8.91482 7.35634 8.91482 7.29797 8.91076C7.23939 8.90669 7.17995 8.89857 7.12329 8.88831C7.09593 8.88339 7.06749 8.8774 7.04183 8.8712C7.04141 8.8712 7.04098 8.87163 7.04055 8.8712C7.0149 8.86522 6.99095 8.85816 6.96893 8.85175C6.96807 8.85132 6.96764 8.85175 6.96722 8.85175C6.92168 8.83828 6.8849 8.82395 6.85925 8.81091C6.97534 8.81305 7.10298 8.81176 7.21331 8.80685C7.32363 8.80193 7.41535 8.79466 7.4594 8.78568C7.47436 8.77841 7.49232 8.77221 7.51178 8.7658C7.52974 8.76002 7.55048 8.75361 7.57207 8.74912C7.57378 8.74869 7.57613 8.74912 7.57784 8.74912C7.59709 8.74506 7.6174 8.74164 7.63942 8.73928C7.64305 8.73886 7.64583 8.738 7.64947 8.738C7.67598 8.73522 7.70335 8.73394 7.73221 8.73351ZM10.1833 8.92209C10.0851 8.92786 9.97759 8.96528 9.85572 9.0709C9.67121 9.2522 9.51598 9.47777 9.39711 9.69114C9.38321 9.71723 9.37872 9.74096 9.38449 9.76854C9.51962 10.3903 9.57756 10.6999 9.60279 10.8641L9.69152 10.7907C9.63828 10.6411 9.61091 10.46 9.6293 10.2423C9.69323 10.0758 9.72658 9.87908 9.75587 9.69114C9.85294 9.48503 9.86299 9.39759 9.95685 9.40315C10.0411 9.40764 10.1283 9.4117 10.2072 9.3946C10.2378 9.38861 10.263 9.37642 10.2904 9.35932C10.4232 9.27936 10.5365 9.17096 10.6333 9.04845C10.6451 9.03583 10.6521 9.00889 10.6459 8.99671C10.6423 8.9873 10.6365 8.98238 10.6248 8.98238C10.4852 8.99093 10.3475 8.91247 10.1833 8.92209ZM10.1384 8.93727C10.1645 8.93684 10.1914 8.94261 10.217 8.95309C10.2688 8.9734 10.3066 9.01295 10.3269 9.05978C10.3372 9.08351 10.343 9.10831 10.344 9.1344C10.3445 9.16048 10.34 9.18742 10.3295 9.21308C10.3192 9.23873 10.3043 9.26075 10.2859 9.27936C10.2309 9.33473 10.145 9.35483 10.068 9.32425C10.055 9.31891 10.0428 9.31356 10.0317 9.30587C10.0203 9.2986 10.0114 9.28962 10.002 9.28064C9.94659 9.22569 9.92628 9.14124 9.95685 9.06427C9.96091 9.05379 9.9654 9.04481 9.97096 9.03583C9.97182 9.03498 9.9731 9.03412 9.97395 9.03305C9.97631 9.0292 9.97802 9.02557 9.9808 9.02193C9.98614 9.01466 9.99213 9.00846 9.9979 9.00205L10.0032 8.99671C10.0118 8.98815 10.0203 8.9796 10.0304 8.97276C10.0379 8.96699 10.0469 8.96292 10.0554 8.95843C10.0569 8.95801 10.0582 8.95801 10.0595 8.95715C10.0623 8.9563 10.064 8.95394 10.0667 8.95309C10.0776 8.9486 10.0888 8.94539 10.1005 8.94325C10.1127 8.94047 10.1258 8.9377 10.1384 8.93727ZM7.89427 8.94047C7.92036 8.93962 7.94537 8.94411 7.97167 8.95437C7.98407 8.95929 7.99669 8.96528 8.00802 8.97276C8.01935 8.98003 8.02833 8.98858 8.03731 8.99799C8.04714 9.00761 8.05527 9.01659 8.06297 9.02728C8.07729 9.04887 8.0882 9.07282 8.09397 9.09805C8.10209 9.13525 8.09931 9.17587 8.08413 9.21457C8.07857 9.22761 8.0728 9.2383 8.06553 9.24964C8.06553 9.25006 8.06617 9.25049 8.06553 9.25092C8.03645 9.29496 7.99049 9.32468 7.94046 9.33559C7.91523 9.34093 7.88914 9.34136 7.86306 9.33687C7.85002 9.33473 7.83655 9.33067 7.82393 9.32575C7.81089 9.32019 7.79828 9.31442 7.78716 9.30715C7.76514 9.29282 7.74696 9.2738 7.73221 9.2522C7.69608 9.19918 7.68581 9.12991 7.71147 9.06555C7.71639 9.05294 7.72366 9.04118 7.73093 9.03049C7.73756 9.02001 7.74397 9.0106 7.75188 9.00205C7.7538 9.00034 7.75594 8.99948 7.75787 8.99799C7.76642 8.98944 7.77454 8.98046 7.78438 8.97426C7.7925 8.96827 7.80106 8.96421 7.80961 8.95972C7.81004 8.95972 7.81046 8.95886 7.81089 8.95843C7.81902 8.9548 7.82799 8.95309 7.83655 8.95031C7.84467 8.94774 7.85322 8.94454 7.86178 8.94325H7.86456C7.87396 8.94133 7.88423 8.94047 7.89427 8.94047ZM7.25564 9.03861C7.26056 9.03861 7.2659 9.03947 7.27103 9.04032C7.27189 9.04032 7.27317 9.03989 7.27403 9.04032C7.28301 9.04118 7.29199 9.04438 7.30204 9.04845C7.31273 9.05294 7.32406 9.05828 7.33582 9.06555C7.34779 9.07282 7.3604 9.08094 7.37409 9.09078L7.37794 9.09356C7.3897 9.10254 7.40145 9.11152 7.4145 9.12178C7.42839 9.13269 7.44144 9.14209 7.45683 9.15428C7.48505 9.1763 7.51627 9.20046 7.54941 9.22441C7.56608 9.23659 7.58319 9.24771 7.60158 9.25947C7.61569 9.26845 7.63001 9.27893 7.64541 9.28791C7.65161 9.29154 7.65845 9.29496 7.66465 9.2986C7.68218 9.30865 7.70078 9.31805 7.7196 9.32703C7.73798 9.33601 7.75744 9.34414 7.77711 9.35226C7.78352 9.35483 7.7893 9.35846 7.79571 9.36081C7.81538 9.3683 7.83612 9.37428 7.85729 9.38048C7.88252 9.38775 7.90817 9.39502 7.93468 9.40037C7.96162 9.40529 7.9892 9.40892 8.01785 9.41106C8.04672 9.41384 8.07686 9.41555 8.10787 9.41555C8.11385 9.41555 8.11834 9.41705 8.12198 9.41961C8.1254 9.42196 8.12818 9.42517 8.12903 9.43094C8.12989 9.47948 8.08542 9.49658 8.03731 9.49979C8.00887 9.50022 7.98065 9.49936 7.95179 9.49851C7.86712 9.49615 7.7831 9.48953 7.69843 9.47584C7.68945 9.47499 7.68175 9.47285 7.6732 9.46921C7.66508 9.46558 7.65802 9.46066 7.64947 9.45489C7.62338 9.43714 7.5958 9.41705 7.56801 9.3946C7.54 9.37193 7.51349 9.34863 7.48783 9.32575C7.46132 9.30223 7.43695 9.28064 7.41578 9.26075C7.39504 9.24151 7.37858 9.22483 7.36682 9.21308C7.35463 9.20239 7.34522 9.19341 7.3371 9.18485C7.3294 9.17673 7.32277 9.1686 7.31722 9.1624C7.30695 9.14979 7.30246 9.14124 7.29669 9.13311C7.29348 9.12905 7.29028 9.12542 7.28664 9.12178C7.27552 9.11002 7.25735 9.09741 7.21651 9.07539C7.2116 9.07325 7.20839 9.07132 7.20796 9.06833C7.20753 9.06641 7.20753 9.06512 7.20924 9.06277C7.21074 9.06063 7.21202 9.05785 7.21459 9.05571C7.21908 9.05208 7.22464 9.0493 7.22913 9.04716C7.23319 9.04481 7.23725 9.04267 7.24174 9.0416C7.24623 9.04032 7.25072 9.03904 7.25564 9.03861Z" fill="#FDBE11"/>
</g>
<defs>
<clipPath id="clip0_521_2121">
<rect width="18" height="18" fill="white"/>
</clipPath>
</defs>
</svg>
