<svg width="20" height="20" viewBox="0 0 20 20" fill="none" xmlns="http://www.w3.org/2000/svg">
<g clip-path="url(#clip0_521_1997)">
<path d="M4.99996 3.34164C2.98329 4.86664 1.66663 7.27498 1.66663 9.99998C1.66663 11.2166 1.93329 12.375 2.40829 13.425L4.99996 11.925V3.34164Z" fill="#323232" fill-opacity="0.5"/>
<path d="M9.16663 9.51665V1.70831C8.28329 1.79998 7.44163 2.02498 6.66663 2.36665V10.9666L9.16663 9.51665Z" fill="#323232" fill-opacity="0.5"/>
<path d="M9.99991 10.9583L3.24158 14.8583C3.74991 15.5583 4.35824 16.1833 5.05824 16.6916L12.4999 12.4083L9.99991 10.9583Z" fill="#323232" fill-opacity="0.5"/>
<path d="M10.8333 6.6333V9.51663L17.5916 13.4166C17.9416 12.6416 18.1749 11.8083 18.2749 10.9333L10.8333 6.6333Z" fill="#323232" fill-opacity="0.5"/>
<path d="M6.72498 17.6667C7.73331 18.0917 8.83331 18.3333 9.99998 18.3333C12.7833 18.3333 15.2416 16.9583 16.7583 14.8667L14.1666 13.3667L6.72498 17.6667Z" fill="#323232" fill-opacity="0.5"/>
<path d="M18.2666 9.00831C17.8083 5.14998 14.7166 2.09165 10.8333 1.70831V4.70831L18.2666 9.00831Z" fill="#323232" fill-opacity="0.5"/>
</g>
<defs>
<clipPath id="clip0_521_1997">
<rect width="20" height="20" fill="white"/>
</clipPath>
</defs>
</svg>
