<svg width="20" height="20" viewBox="0 0 20 20" fill="none" xmlns="http://www.w3.org/2000/svg">
<g clip-path="url(#clip0_521_1987)">
<path d="M2.51667 13.0167C2.45 15.0333 2.78333 16.6333 3.075 16.925C3.36667 17.2167 4.975 17.5583 6.98333 17.4833L2.51667 13.0167Z" fill="#323232" fill-opacity="0.5"/>
<path d="M10.8999 2.73334C8.95828 3.08334 6.90828 3.85 5.38328 5.38334C3.85828 6.91667 3.08328 8.95834 2.73328 10.9L9.09161 17.2583C11.0416 16.9167 13.0833 16.1417 14.6083 14.6083C16.1333 13.075 16.9083 11.0333 17.2583 9.09167L10.8999 2.73334ZM8.24994 12.9167L7.08328 11.75L11.7499 7.08334L12.9166 8.25L8.24994 12.9167Z" fill="#323232" fill-opacity="0.5"/>
<path d="M17.4834 6.98333C17.5501 4.96666 17.2167 3.36666 16.9251 3.07499C16.6334 2.78333 15.0251 2.44166 13.0167 2.51666L17.4834 6.98333Z" fill="#323232" fill-opacity="0.5"/>
</g>
<defs>
<clipPath id="clip0_521_1987">
<rect width="20" height="20" fill="white"/>
</clipPath>
</defs>
</svg>
